<?xml version="1.0" encoding="UTF-8" standalone="no"?>
<!-- Created with Inkscape (http://www.inkscape.org/) -->

<svg
   version="1.1"
   id="svg1785"
   width="412"
   height="411"
   viewBox="0 0 412 411"
   sodipodi:docname="penguin.svg"
   inkscape:version="1.2.1 (9c6d41e410, 2022-07-14)"
   xmlns:inkscape="http://www.inkscape.org/namespaces/inkscape"
   xmlns:sodipodi="http://sodipodi.sourceforge.net/DTD/sodipodi-0.dtd"
   xmlns="http://www.w3.org/2000/svg"
   xmlns:svg="http://www.w3.org/2000/svg">
  <defs
     id="defs1789" />
  <sodipodi:namedview
     id="namedview1787"
     pagecolor="#ffffff"
     bordercolor="#000000"
     borderopacity="0.25"
     inkscape:showpageshadow="2"
     inkscape:pageopacity="0.0"
     inkscape:pagecheckerboard="0"
     inkscape:deskcolor="#d1d1d1"
     showgrid="false"
     inkscape:zoom="1.86618"
     inkscape:cx="192.90743"
     inkscape:cy="203.62451"
     inkscape:window-width="1280"
     inkscape:window-height="961"
     inkscape:window-x="-8"
     inkscape:window-y="-8"
     inkscape:window-maximized="1"
     inkscape:current-layer="g1791" />
  <g
     inkscape:groupmode="layer"
     inkscape:label="Image"
     id="g1791">
    <path
       id="path2043"
       style="fill:#00ff00;fill-rule:evenodd;stroke:#996600;stroke-width:1.00157;stroke-linejoin:round;paint-order:stroke fill markers"
       d="m 300.07822,207.10757 c -2.14342,61.40837 -50.20511,112.79725 -112.79725,112.79725 -62.59215,-10e-6 -110.117977,-50.85303 -110.117983,-112.2614 0,-61.40837 46.989983,-106.36701 109.582123,-106.36701 62.59215,0 115.47523,44.46015 113.33311,105.83116 z"
       sodipodi:nodetypes="sssss" />
    <path
       style="fill:#008000;fill-rule:evenodd;stroke:#996600;stroke-width:1.00157;stroke-linejoin:round;paint-order:stroke fill markers"
       d="m 294.71969,176.29596 c 0,1.07171 0.13293,2.15169 0,3.21512 -0.20721,1.65763 -0.97897,0.83126 -2.14342,1.60756 -0.14862,0.0991 0.0799,0.3761 0,0.53586 -0.28801,0.57602 -0.78369,1.03153 -1.07171,1.60756 -0.6178,1.23561 0,8.92707 0,10.71708 0,1.32666 -0.55998,19.24248 0,20.36245 0.63135,1.26269 0.18754,1.70577 0.53586,3.21512 0.41932,1.81708 1.15527,3.5494 1.60756,5.35854 0.27754,1.11018 0,3.25526 0,4.28684 0,3.21512 0,6.43024 0,9.64537 0,0.53416 0.10148,11.68731 0,11.78879 -0.9546,0.9546 -5.14916,1.0717 -6.43025,1.0717 -0.17202,0 1.60756,0.36611 1.60756,-1.0717 0,-2.36774 -0.47712,-5.476 0.53586,-7.50196 0.82391,-1.64783 -0.94525,-4.85483 0,-6.43025 0.66268,-1.10448 2.4423,-1.11299 3.21512,-2.14341 0.32151,-0.42869 0,-1.07171 0,-1.60757 0,-1.42894 0,-2.85788 0,-4.28683 0,-2.5744 -0.46238,-4.52881 -1.07171,-6.9661 -0.99923,-3.99693 0.84041,-10.80187 0,-15.00391 -0.0783,-0.39165 -0.40955,-0.6928 -0.53585,-1.07171 -0.41704,-1.25113 0.21159,-3.01728 0,-4.28683 -0.24215,-1.45288 -0.82956,-2.83395 -1.07171,-4.28683 -0.47854,-2.87127 0,-6.16437 0,-9.10952 0,-2.02857 -0.6184,-11.08784 0,-12.32464 0.87262,-1.74524 4.28683,0.73397 4.28683,-2.14342"
       id="path2334" />
    <path
       style="fill:#008000;fill-rule:evenodd;stroke:#996600;stroke-width:1.00157;stroke-linejoin:round;paint-order:stroke fill markers"
       d="m 283.46675,151.11082 c -0.53585,1.07171 -1.33813,2.0476 -1.60756,3.21513 -0.74664,3.23545 0.54695,6.89955 0,10.18122 -0.77149,4.62895 -0.53585,9.2226 -0.53585,13.9322 0,4.82269 0,9.64538 0,14.46806 0,2.12085 -0.34937,4.86992 0,6.9661 0.28579,1.71474 0.6073,0.6073 1.60756,1.60757 0.38786,0.38785 0,4.67921 0,5.89439 0,2.96016 -0.2447,5.66215 -0.53585,8.57366 -0.38354,3.8354 0.63422,7.98343 0,11.78879 -0.12108,0.72644 -0.46258,1.41061 -0.53586,2.14342 -0.10664,1.06639 0.17619,2.15799 0,3.21512 -0.18572,1.11431 -0.77447,2.12525 -1.07171,3.21512 -0.36027,1.321 -1.16564,16.32967 -0.53585,18.21904 -0.97035,2.24188 0.84577,0.61984 1.07171,1.07171 0.15976,0.31952 -0.15976,0.75218 0,1.0717 0.0799,0.15977 0.40955,-0.1263 0.53585,0 0.27882,0.27882 0,1.69034 0,2.14342 0,0.89659 0.5327,4.28999 0,4.82269 -1.17969,1.17969 -1.55172,-1.50985 -1.60756,-1.60757 -0.56744,-0.99302 -1.509,-1.72764 -2.14342,-2.67927 -0.53777,-0.80666 0,-3.93903 0,-4.82268 0,-13.45115 0.53586,-26.15721 0.53586,-39.6532 0,-1.46583 0.61572,-9.48562 0,-10.71707 -0.0799,-0.15977 -0.40955,0.1263 -0.53586,0 -0.0295,-0.0295 0.0307,-5.2665 -0.53585,-6.96611 -0.56187,-1.68561 0,-8.13954 0,-10.18122 0,-6.25163 0,-12.50326 0,-18.75489 0,-2.17059 -0.6253,-9.37705 0,-11.25293 0.1263,-0.37891 0.45752,-0.68007 0.53585,-1.07171 1.03865,-5.19325 -1.11738,-6.87476 1.60757,-12.32464"
       id="path2336" />
    <path
       style="fill:#008000;fill-rule:evenodd;stroke:#996600;stroke-width:1.00157;stroke-linejoin:round;paint-order:stroke fill markers"
       d="m 272.74967,135.0352 c -0.0881,1.19208 -3.98668,0.64266 -4.28683,2.14342 -0.57589,2.87946 -1.187,22.78399 0,24.64928 1.23673,1.94344 11.33334,13.61059 11.25294,13.9322 -1.83345,7.33381 -11.33449,9.17476 -16.61148,13.39635 -0.16745,0.13397 0.0837,1.27266 0,1.60757 -0.13699,0.54797 -0.47348,1.04617 -0.53585,1.60756 -0.48629,4.37663 -0.29506,23.18271 1.07171,25.72099 2.51181,4.6648 6.77657,6.99655 8.57366,11.78879 0.6176,1.64692 0,5.645 0,7.50195 0,1.31222 0.4988,8.11193 0,9.10952 -0.0799,0.15976 -0.40955,-0.1263 -0.53585,0 -1.40875,1.40874 -1.07171,10.48827 -1.07171,12.86049 0,3.43407 0.37585,6.1344 -1.60756,9.10952 -0.90137,1.35206 -1.91521,2.59984 -2.14342,2.14342 -0.3994,-0.79881 0.11077,-1.79308 0,-2.67927 -0.92805,-7.4244 -0.20667,3.08518 -1.07171,-6.43025 -0.46104,-5.07145 0,-10.44472 0,-15.53976 0,-0.89309 -0.63151,-2.04776 0,-2.67927 0.21368,-0.21369 2.53506,-1.42234 2.67927,-2.14342 0,-0.71447 0,-1.42894 0,-2.14342 0.35724,-0.17861 0.93147,-0.16188 1.07171,-0.53585 0.57822,-1.54193 0.67231,-3.22508 1.07171,-4.82269 0.12996,-0.51985 -0.37891,-1.22865 0,-1.60756 1.2652,-1.2652 -0.28181,2.98884 1.07171,-1.07171 0.22389,-0.67167 0.49368,-4.86485 0,-5.35854 -1.01828,-1.01828 -2.42735,-1.57614 -3.75098,-2.14341 -1.33211,-0.57091 -4.40061,0.95793 -5.35854,0 -0.28242,-0.28242 -0.28016,-0.76488 -0.53586,-1.07171 -0.80856,-0.97028 -2.11443,-1.54959 -2.67927,-2.67927 -0.21434,-0.42868 0.21435,-1.17888 0,-1.60756 -1.3089,-2.61782 -0.53585,-7.08576 -0.53585,-10.18123 0,-1.42231 -0.66161,-5.10702 0,-6.43024 0.68218,-1.36437 0.51568,-2.61876 1.07171,-4.28684 0.63716,-1.91148 1.58922,-2.62423 2.14341,-4.28683 0.43837,-1.3151 -0.8522,-1.48005 0.53586,-3.21512 1.59353,-1.99191 4.67701,0.8806 5.35854,1.60756 1.90826,2.03548 3.0728,4.83023 5.35854,6.43025 0.73165,0.51215 0,-1.78618 0,-2.67927 0,-0.89309 0,-1.78618 0,-2.67927 0,-1.9648 -0.44181,-3.97991 0,-5.8944 0.14481,-0.62752 1.27622,-0.51946 1.60756,-1.0717 0.63233,-1.05388 -0.0474,-3.65608 0.53585,-4.82269 0.0799,-0.15976 0.47937,0.16945 0.53586,0 0.22593,-0.67781 0.14012,-1.44282 0,-2.14342 -1.34922,-6.74611 -3.45699,-9.13324 -8.03781,-13.9322 -2.53055,-2.65105 -4.80034,-5.56132 -7.50196,-8.03781 -1.48771,-1.36373 -7.64033,-4.44284 -8.03781,-6.43025 -0.39828,-1.99141 0.69599,-7.12534 1.07171,-8.03781 0.58503,-1.42079 1.85435,-2.45466 2.67927,-3.75097 0.64329,-1.01088 0.7603,-2.36787 1.60756,-3.21513 0.56484,-0.56484 1.51966,-0.5727 2.14342,-1.07171 0.87815,-0.70252 1.9138,-2.419 3.21512,-2.67927 0.52545,-0.10509 1.08212,0.10509 1.60756,0 0.96962,-0.19392 3.6476,-2.78265 4.82269,-1.60756 0.17387,0.17388 -2.14342,4.69984 -2.14342,5.8944"
       id="path2338" />
    <path
       style="fill:#008000;fill-rule:evenodd;stroke:#996600;stroke-width:1.00157;stroke-linejoin:round;paint-order:stroke fill markers"
       d="m 240.06258,112.52934 c 1.09758,4.14585 -1.05019,10.80315 0,15.00391 0.28187,1.12746 0.90543,2.51905 0.53586,3.75097 -0.43853,1.46176 -0.58665,3.15249 -1.60757,4.28684 -2.79972,3.1108 -6.37731,5.42336 -9.64537,8.03781 -0.31188,0.2495 -0.78929,0.25343 -1.07171,0.53585 -0.5052,0.50521 -0.19628,1.45643 0,2.14342 1.44409,5.05428 6.15013,7.75768 9.64538,11.25293 0.92115,0.92115 -0.37231,5.28538 -0.53586,6.43025 -0.2852,1.99642 -0.34585,12.61818 0,13.39635 0.46451,1.04513 1.43681,1.77994 2.14342,2.67927 1.25823,1.60138 2.14959,3.56445 3.75098,4.82268 1.06964,0.84043 4.50554,0.47571 3.75097,1.60756 -1.43151,2.14728 -6.95092,3.78172 -7.50195,4.28684 -0.65835,0.60348 0,1.78618 0,2.67927 0,7.32333 0,14.64667 0,21.97001 0,0.79222 -0.38371,3.11146 0,3.75098 0.33134,0.55224 1.15217,0.61632 1.60756,1.0717 0.2526,0.25261 0,0.71448 0,1.07171 0,0.89309 -0.23903,1.81876 0,2.67927 0.66586,2.3971 1.71384,4.6732 2.67927,6.9661 0.46497,1.10431 1.29229,2.05914 1.60756,3.21513 0.53604,1.96549 -0.64319,4.50068 0,6.43025 0.46589,1.39765 2.24788,2.15995 3.21513,3.21512 1.20696,1.31669 2.0136,2.96517 3.21512,4.28683 0.60076,0.66083 1.64802,0.86447 2.14341,1.60756 0.69356,1.04034 0,2.50065 0,3.75098 0,7.68057 0,15.36115 0,23.04172 0,3.21513 0,6.43025 0,9.64537 0,0.22803 0.17102,2.59376 0,2.67927 -3.0365,0 -0.17861,-0.35723 -1.0717,0.53586 -0.71814,0.71813 -1.36358,-1.92654 -1.60757,-2.14342 -1.335,-1.18667 -2.80064,-2.22433 -4.28683,-3.21512 -0.14862,-0.0991 -0.45597,0.15976 -0.53585,0 -0.15976,-0.31952 0.0505,-0.71806 0,-1.07171 -0.35216,-2.46511 -0.53585,-4.4681 -0.53585,-6.9661 0,-0.60946 0.30786,-3.13524 0,-3.75098 -0.9163,-1.83259 -4.72252,-4.5272 -5.8944,-5.89439 -0.41393,-0.48292 -0.23915,-6.24864 0,-6.96611 0.0565,-0.16945 0.37609,0.0799 0.53586,0 0.57602,-0.28801 1.03153,-0.78369 1.60756,-1.0717 0.15976,-0.0799 0.50082,0.17515 0.53585,0 0.60894,-3.04469 0,-11.51029 0,-14.46806 0,-0.38835 0.54365,-12.30126 0,-13.9322 -0.54355,-1.63067 -2.89057,-2.85282 -3.75098,-4.28684 -0.18379,-0.30632 0.11297,-0.7328 0,-1.0717 -0.2526,-0.75782 -0.79123,-1.39548 -1.0717,-2.14342 -1.66602,-4.44271 0.19189,-0.11222 -0.53586,-3.75098 -0.25502,-1.2751 -0.83909,-2.47159 -1.07171,-3.75098 -0.60476,-3.32622 0,-7.32189 0,-10.71707 0,-1.59583 -0.5433,-6.23426 0,-7.50196 0.41028,-0.9573 1.14179,-1.74771 1.60757,-2.67927 0.61457,-1.22915 0.33274,-2.10668 1.0717,-3.21512 0.687,-1.03049 1.99228,-1.64879 2.67927,-2.67927 0.29724,-0.44586 0.37891,-1.22866 0,-1.60757 -4.53023,-4.53023 -0.0724,0.30898 -3.75097,-2.14341 -0.14862,-0.0991 0.0491,-0.36411 0,-0.53586 -0.31035,-1.08621 -0.4905,-2.24643 -1.07171,-3.21512 -0.51986,-0.86642 -1.51222,-1.35441 -2.14342,-2.14342 -0.5965,-0.74562 0.29562,-6.00515 0.53586,-6.9661 0.33563,-1.34252 0.37424,-6.70244 0,-8.57366 -0.98058,-4.9029 -0.43433,-0.0282 -1.07171,-3.21512 -0.10509,-0.52545 0.12996,-1.08771 0,-1.60757 -1.05505,-4.22017 -0.44267,-1.51437 -2.67927,-3.75097 -0.45539,-0.45539 -0.65259,-1.11859 -1.07171,-1.60757 -2.15252,-2.51127 -2.02673,-2.0035 -4.82269,-3.75097 -1.07343,-0.6709 -2.06872,-0.75994 -1.60756,-2.14342 0.29544,-0.88633 1.34684,-3.49026 2.14342,-4.28683 0.30661,-0.30661 1.35423,-0.31172 1.60756,-1.07171 0.16945,-0.50836 -0.47928,-1.36792 0,-1.60756 0.31952,-0.15976 0.78592,0.21434 1.07171,0 1.81423,-1.36068 0.40267,-2.44542 2.14341,-3.75098 1.49164,-1.11873 1.5463,0.13168 3.21513,-0.53585 1.2234,-0.48936 1.98378,-1.63604 2.67927,-2.67927 0.30369,-0.45554 1.85953,-2.36349 2.14341,-3.21513 0.45412,-1.36234 0.97779,-8.31959 0.53586,-9.64537 -0.0799,-0.23964 -0.45598,-0.29621 -0.53586,-0.53585 -0.22593,-0.67781 0.42869,-1.57184 0,-2.14342 -2.76542,-3.68724 -3.53918,-2.95704 -6.9661,-5.89439 -0.051,-0.0437 -0.006,-1.60559 0,-1.60756 3.64009,-1.21337 12.17484,11.08007 12.32464,11.25293"
       id="path2340" />
    <path
       style="fill:#008000;fill-rule:evenodd;stroke:#996600;stroke-width:1.00157;stroke-linejoin:round;paint-order:stroke fill markers"
       d="m 206.83963,100.74055 c 0,3.92959 0,7.85919 0,11.78879 0,0.71447 0,1.42894 0,2.14341 0,0.17862 0.15977,0.45597 0,0.53585 -0.31952,0.15977 -0.95874,-0.3389 -1.0717,0 -0.2521,0.7563 2.56712,5.02212 2.67927,5.35854 0.98645,2.95936 1.65057,6.02927 2.14341,9.10952 0.22576,1.411 0.63905,3.00875 0,4.28683 -0.0135,0.0269 -5.74821,-0.23542 -4.82268,0.53586 3.95797,3.29831 8.6084,5.66434 12.86049,8.57366 0.20848,0.14264 0.30992,0.42289 0.53586,0.53586 0.15976,0.0799 0.63493,-0.14862 0.53585,0 -2.20578,3.30867 -5.43511,9.26262 -9.64537,11.78878 -0.82481,0.49489 -1.99911,0.39155 -2.67927,1.07171 -0.37891,0.37891 0,1.07171 0,1.60756 0,1.25033 0,2.50065 0,3.75098 0,1.8707 0.62993,10.01597 1.07171,11.25293 0.29321,0.821 2.83129,5.78365 3.75097,6.96611 0.62034,0.79757 1.35442,1.51221 2.14342,2.14341 0.13948,0.11158 0.42868,-0.14289 0.53585,0 2.18647,2.9153 2.4038,8.99443 1.07171,12.32464 -0.17812,0.44532 -0.98015,1.14978 -1.07171,1.60757 -0.2452,1.22604 0.88412,2.86686 0,3.75097 -0.1263,0.12631 -0.43677,-0.14862 -0.53585,0 -0.31332,0.46998 -0.28325,1.10236 -0.53585,1.60757 -1.47025,2.94049 -2.35079,3.88859 -2.67927,7.50195 -0.16647,1.83118 -0.0311,7.48641 0,7.50196 1.36499,0.68249 2.78767,1.322 4.28683,1.60756 4.24269,0.80813 8.64437,-0.35042 6.9661,1.60756 -3.16011,3.6868 -13.77623,9.33342 -15.53977,12.8605 -0.34392,0.68784 -0.31334,4.09155 0,4.82268 1.91622,4.47118 1.70826,0.90508 3.21513,6.43025 0.41236,1.51201 -0.30751,3.28516 0,4.82269 0.20532,1.0266 1.62425,7.96796 2.14341,8.57366 0.82197,0.95895 2.0659,1.57519 2.67927,2.67927 0.34698,0.62456 -0.35447,1.52308 0,2.14341 -1.1761,5.39704 1.94281,0.87111 2.67927,1.60757 0.50521,0.5052 -0.14718,1.44427 0,2.14341 0.60688,2.88266 1.51764,5.69506 2.14342,8.57367 0.2683,1.23419 0.3792,2.49771 0.53585,3.75097 0.0222,0.17724 -0.1263,0.40956 0,0.53586 0.20788,0.20788 3.20276,1.05934 3.75098,1.60756 0.1263,0.1263 -0.0799,0.37609 0,0.53585 0.46578,0.93156 1.09083,1.77499 1.60756,2.67927 0.9124,1.59669 1.97197,3.12516 2.67927,4.82269 0.2061,0.49463 -0.16945,1.09921 0,1.60756 0.0565,0.16945 0.40956,-0.1263 0.53586,0 0.70943,0.70943 -0.16882,4.11802 0.53585,4.82269 0.1263,0.1263 0.35724,0 0.53586,0 0.35723,0.17862 0.85016,0.20353 1.0717,0.53585 0.0898,0.13465 0.22619,2.98894 0,3.21512 -0.1263,0.12631 -0.53585,-0.17861 -0.53585,0 0,0.25261 0.35724,0.35724 0.53585,0.53586 0.89309,0.89309 1.67463,1.91382 2.67927,2.67927 2.75867,2.10184 5.6327,4.05629 8.57367,5.89439 0.15147,0.0947 0.1263,-0.40955 0,-0.53585 -0.28242,-0.28242 -0.82221,-0.22397 -1.07171,-0.53586 -0.49901,-0.62376 -0.60741,-1.4934 -1.07171,-2.14341 -1.81643,-2.54301 -1.60756,-1.09549 -1.60756,-3.75098 0,-2.82918 -0.73376,-5.41639 -1.60756,-8.03781 -0.37027,-1.11081 0.19386,-1.21983 -0.53586,-2.67927 -0.3994,-0.7988 -1.57167,-0.92147 -2.14341,-1.60756 -0.51138,-0.61366 -0.50687,-1.57858 -1.07171,-2.14342 -2.71289,-2.71288 -1.55965,-0.24397 -3.21512,-1.0717 -0.82071,-0.41036 -0.41905,-0.95491 -1.07171,-1.60757 -0.63151,-0.63151 -1.64802,-0.86446 -2.14342,-1.60756 -1.20052,-1.80078 2.02014,-7.70741 0.53586,-10.18122 -3.38035,-5.63391 2.02467,4.94219 -3.21513,-1.60757 -0.42967,-0.53709 0,-6.65505 0,-6.9661 0,-2.88783 0.0981,-2.14341 -3.21512,-2.14341 -1.9648,0 -3.93767,0.17788 -5.8944,0 -0.0887,-0.008 0.33485,-5.42519 0.53586,-6.43025 0.49092,-2.45459 0.97967,-1.95935 1.07171,-2.14342 0.31952,-0.63904 0,-1.42894 0,-2.14341 0,-3.68883 -1.44821,-5.62881 -3.21513,-8.57367 -0.92489,-1.54148 -0.98065,-8.07632 0,-9.64537 0.60617,-0.96987 1.57598,-1.68625 2.14342,-2.67927 0.17724,-0.31017 -0.15976,-0.75218 0,-1.07171 0.0799,-0.15976 0.35723,0 0.53585,0 0.35724,-0.17861 0.94541,-0.15694 1.07171,-0.53585 0.28242,-0.84726 -0.28242,-1.83201 0,-2.67927 0.43712,-1.31135 1.7063,-1.90377 2.14342,-3.21512 0.64213,-1.92641 2.04465,-6.57472 3.21512,-8.03781 0.22316,-0.27896 0.71447,0 1.07171,0 0.71447,0 -1.43446,0.0886 -2.14342,0 -1.22809,-0.15352 -5.73419,-0.91151 -6.43025,-1.60757 -0.4681,-0.4681 0,-4.49381 0,-5.35854 0,-2.51014 -0.65116,-8.76359 0,-10.71707 0.6669,-2.0007 2.35256,-1.28086 3.75098,-2.67927 0.25261,-0.25261 0,-0.71448 0,-1.07171 0,-1.07171 -0.0822,-2.14658 0,-3.21513 0.0969,-1.2593 0.22953,-2.52566 0.53586,-3.75097 0.0613,-0.24507 0.59712,-0.2908 0.53585,-0.53586 -0.74812,-2.99247 -7.86809,-7.33223 -10.18123,-9.64537 -0.20878,-0.20879 0,-1.81641 0,-2.14342 0,-2.01145 -0.52677,-9.12768 0,-10.18122 0.65923,-1.31846 0.21823,-2.04401 0.53586,-2.67927 0.0679,-0.1357 1.82819,-0.97711 2.14341,-1.60756 0.27478,-0.54956 1.03556,-2.29794 1.60757,-2.67927 0.29723,-0.19816 0.8191,0.2526 1.0717,0 0.39941,-0.3994 0.13646,-1.20816 0.53586,-1.60756 0.56484,-0.56484 1.45845,-0.66073 2.14341,-1.07171 2.78762,-1.67257 -0.96707,0.43122 0.53586,-1.07171 0.1263,-0.1263 0.49253,0.17328 0.53585,0 0.13893,-0.5557 -0.10419,-3.02162 0,-3.75098 0.21269,-1.48881 0.53586,-1.94412 0.53586,-3.21512 0,-1.95889 2.96946,-4.12101 2.67927,-4.28683 -10.17469,-5.81411 5.06171,5.19137 -10.18123,-5.8944 -0.73658,-0.53569 1.92146,-0.0306 2.67927,-0.53585 0.40552,-0.27035 0.53585,-2.13946 0.53585,-2.67927 0,-3.17093 1.47719,-8.12473 -1.60756,-10.18123 -0.99696,-0.66464 -2.29463,-0.84049 -3.21512,-1.60756 -0.59891,-0.49909 0.45133,-2.34119 0.53585,-2.67927 0.31833,-1.27332 0,-4.46987 0,-5.35854 0,-4.91539 0.0422,-6.26149 -1.07171,-10.71708 -0.0866,-0.34657 0.35724,-1.07171 0,-1.07171 -0.91077,0 -1.78618,0.35724 -2.67927,0.53586 z"
       id="path2342" />
    <path
       style="fill:#008000;fill-rule:evenodd;stroke:#996600;stroke-width:1.00157;stroke-linejoin:round;paint-order:stroke fill markers"
       d="m 178.43937,101.2764 c -0.69785,0.48416 0.81854,9.89855 0,10.71708 -0.2526,0.25261 -0.91194,-0.31952 -1.0717,0 -0.52357,1.04713 -1.00963,7.46819 -0.53586,8.57366 0.84306,1.96715 7.18234,3.53685 9.10952,3.75098 0.7101,0.0789 1.45028,-0.17328 2.14342,0 0.17328,0.0433 0,0.35724 0,0.53586 0,0.71447 0,1.42894 0,2.14341 0,1.42895 0.63904,3.00875 0,4.28683 -0.39059,0.78118 -5.35854,2.50204 -5.35854,3.75098 0,7.96121 3.19321,3.57868 4.82268,6.43025 1.90526,3.3342 -0.38105,1.69092 0,3.21512 0.23613,0.94451 1.25228,3.86746 0.53586,4.82269 -0.33891,0.45187 -1.20816,0.13645 -1.60757,0.53585 -0.2526,0.25261 0.11297,0.73281 0,1.07171 -0.0799,0.23964 -0.42288,0.30992 -0.53585,0.53586 -0.42611,0.85222 0.061,3.43264 0,4.28683 -0.58437,8.18115 -0.53585,3.44534 -0.53585,7.50195 0,2.64834 -0.0825,5.02839 0.53585,7.50196 0.0866,0.34657 -0.15976,0.75218 0,1.07171 0.22594,0.45187 0.84577,0.61983 1.07171,1.0717 1.10694,2.21389 -0.77883,6.76645 -1.07171,9.10952 -0.0886,0.70896 0.14012,1.44282 0,2.14342 -0.0495,0.2477 -0.45597,0.29621 -0.53585,0.53585 -0.22594,0.67781 0,1.42895 0,2.14342 -0.89309,0.71447 -2.04486,1.19179 -2.67927,2.14341 -0.66501,0.99752 -1.152,17.21454 -0.53586,18.75489 0.18763,0.46908 0.84577,0.61984 1.07171,1.07171 0.31952,0.63904 -0.26535,1.48005 0,2.14342 0.23918,0.59795 0.86805,0.99659 1.07171,1.60756 0.66404,1.99212 -0.15405,4.36055 0.53585,6.43025 0.74306,2.22918 -0.82397,5.30468 0,7.50195 2.38636,6.36362 0.36197,1.52062 2.67927,2.67927 0.0544,0.0272 0,6.13976 0,8.57367 0,1.48169 -0.35362,3.40818 0,4.82268 0.0613,0.24506 0.49433,0.28669 0.53586,0.53586 0.67252,4.03513 0,10.26251 0,14.46805 0,2.31207 -0.68717,9.19144 0,11.25294 0.61573,1.8472 0.53585,0.39694 0.53585,1.60756 0,3.63645 -0.0863,7.41563 2.67927,10.18122 2.54611,2.54611 6.24387,2.84238 8.03781,6.43025 0.46396,0.92792 -6.76409,5.6222 -6.9661,6.43025 -1.82569,7.30276 2.10018,-3.66451 -1.07171,2.67927 -0.76478,1.52955 -0.53585,8.13394 -0.53585,10.18122 0,0.11663 -0.15659,1.90854 0,2.14342 1.52002,2.28004 11.67871,5.39523 5.35854,7.50196 -0.37891,0.1263 -0.67632,0.47937 -1.07171,0.53585 -2.82423,0.40346 -10.46436,0.34231 -12.8605,0 -0.17682,-0.0253 0,-0.35724 0,-0.53585 0,-1.37896 -0.0214,-2.35795 0.53586,-3.75098 0.33587,-0.83969 1.53007,-0.45837 2.14341,-1.07171 0.81725,-0.81725 1.9595,-2.79658 3.21513,-3.21512 0.3389,-0.11297 0.7328,0.11296 1.0717,0 0.23964,-0.0799 0.28816,-0.48632 0.53586,-0.53586 0.7006,-0.14012 1.45027,0.17329 2.14341,0 0.43528,-0.10882 -1.28391,-5.19671 -1.60756,-5.35854 -4.20832,-2.10416 -4.82268,0.28629 -4.82268,-4.28683 0,-0.71447 -0.39632,-1.54894 0,-2.14341 1.4354,-2.15311 7.47183,-1.51722 7.50195,-1.60757 0.10218,-0.30654 0.23293,-3.51805 0,-3.75097 -0.71447,-0.71448 -0.53585,0.89309 -0.53585,-0.53586 0,-1.25032 0.88411,-2.86686 0,-3.75098 -0.35356,-0.35355 -1.78986,-0.71815 -2.14342,-1.0717 -0.1263,-0.12631 0.16945,-0.47937 0,-0.53586 -0.72633,-0.24211 -3.36497,0.0863 -3.75098,-1.07171 -0.68622,-2.05866 0,-5.34736 0,-7.50195 0,-5.71578 0,-11.43155 0,-17.14733 0,-3.14263 -2.38477,-3.22537 -4.82268,-5.35854 -0.1021,-0.0893 -0.10379,-2.57548 0,-2.67927 0.28242,-0.28242 0.83206,-0.21633 1.07171,-0.53585 0.3389,-0.45187 0.32607,-1.08312 0.53585,-1.60756 -0.18959,-0.91462 0.7837,-1.03154 1.07171,-1.60757 0.31952,-0.63904 -0.0711,-1.43249 0,-2.14341 0.12567,-1.25675 0.37919,-2.49771 0.53585,-3.75098 0.14076,-1.1261 0.44495,-4.23421 -0.53585,-4.82269 -0.82481,-0.49488 -1.87893,-0.53815 -2.67927,-1.0717 -0.42036,-0.28024 -0.65135,-0.79147 -1.07171,-1.07171 -0.14862,-0.0991 -0.40955,0.1263 -0.53585,0 -0.41307,-0.41307 0.32936,-5.44215 0,-6.43025 -0.4342,-1.30258 -1.05827,-2.65239 -1.60757,-3.75098 -0.28457,-0.56914 0.14766,-2.2363 0,-2.67927 -0.049,-0.14704 -5.20016,-0.15837 -3.75097,-1.60756 0.75781,-0.75781 2.22006,0.39802 3.21512,0 0.22368,-0.0895 0,-3.96018 0,-4.28683 0,-0.45367 0.37035,-3.91649 0,-4.28683 -3.17923,-3.17924 -3.87488,-2.25972 -8.57366,-4.82269 -0.15681,-0.0855 0,-0.35724 0,-0.53585 0,-0.71447 0,-1.42895 0,-2.14342 0,-0.35723 -0.17724,-0.76154 0,-1.07171 2.24602,-3.93053 3.72105,-3.75097 7.50195,-3.75097 0.71447,0 1.63821,0.5052 2.14342,0 0.15836,-0.15836 -1.6529,-1.48494 -4.28683,-2.14342 -0.86643,-0.21661 -1.91346,0.45949 -2.67927,0 -0.45949,-0.2757 0,-1.07171 0,-1.60756 0,-0.35724 -0.30294,-0.88238 0,-1.07171 2.65902,-1.66189 5.58087,-1.84414 8.57366,-2.14342 0.53319,-0.0533 1.36792,0.47929 1.60756,0 0.39083,-0.78164 0.0633,-5.68351 0,-5.89439 -0.47822,-1.59407 -3.02865,-4.57218 -4.28683,-5.35854 -0.4544,-0.284 -1.09921,0.16945 -1.60756,0 -0.44255,-0.14752 1.02683,-6.5411 1.60756,-8.57366 0.69851,-2.4448 1.04299,-5.45661 2.67927,-7.50196 1.4202,-1.77525 3.13285,-3.30184 4.82269,-4.82268 0.13276,-0.11949 0.45597,0.15976 0.53585,0 0.15976,-0.31953 0.31952,-0.91195 0,-1.07171 -0.35724,-0.17862 -0.67475,0.57996 -1.07171,0.53585 -2.5657,-0.28508 -13.47315,-3.67417 -12.32464,-4.82268 2.1557,-2.15571 14.94348,-1.07171 17.14733,-1.07171 0.35723,0 0.75218,0.15976 1.07171,0 0.66066,-0.33033 -0.22163,-3.63632 -3.21513,-6.43025 -1.41243,-1.31827 -3.23417,-2.11538 -4.82268,-3.21512 -5.37791,-3.72317 -10.78574,-7.40575 -16.07562,-11.25294 -0.61287,-0.44572 -1.42377,-0.87237 -1.60757,-1.60756 -0.0302,-0.12072 1.96081,-1.00569 3.21513,-1.07171 3.38905,-0.17837 6.78748,0 10.18122,0 1.42895,0 2.96009,0.5307 4.28684,0 2.84341,-1.13736 -4.69226,-1.94777 -4.82269,-2.14341 -0.4954,-0.7431 -0.14682,-1.79833 0,-2.67927 -0.62337,-1.73829 1.27764,-2.43128 1.60756,-3.75098 0.61853,-2.47413 0,-13.5987 0,-17.14733"
       id="path2344" />
    <path
       style="fill:#008000;fill-rule:evenodd;stroke:#996600;stroke-width:1.00157;stroke-linejoin:round;paint-order:stroke fill markers"
       d="m 148.96741,105.02738 c 0.71447,1.07171 1.40477,2.15993 2.14341,3.21512 0.95429,1.36328 2.38815,3.40709 1.60756,5.35854 -0.97671,2.44178 -8.00781,11.81879 -7.50195,12.32464 3.50709,3.5071 1.91793,1.41723 6.9661,2.67927 1.00772,0.25193 -3.34554,2.07585 -3.75098,2.14342 -0.52856,0.0881 -1.0992,-0.16945 -1.60756,0 -0.16945,0.0565 0,0.35724 0,0.53585 0,0.35724 -0.2526,0.81911 0,1.07171 1.94725,1.94725 10.40623,6.46279 10.18123,8.03781 -0.15366,1.07557 -0.05,2.24334 -0.53586,3.21513 -0.66322,1.32643 -2.31865,0.52569 -2.67927,1.60756 -0.11297,0.3389 0.0866,0.72514 0,1.07171 -0.62142,2.48569 -3.1739,4.20438 -4.28683,6.43024 -1.34981,2.69961 -0.53585,11.83755 -0.53585,12.8605 0,1.9767 -0.60933,13.17592 0,15.00391 0.64401,1.93205 2.66587,3.09928 3.75097,4.82269 2.08941,3.31847 4.00457,6.74517 5.8944,10.18122 0.0861,0.15651 0.1263,0.40955 0,0.53586 -1.97694,1.97693 -5.08699,2.34224 -7.50196,3.75097 -0.46286,0.27 0,1.07171 0,1.60757 0,1.20553 -0.01,1.90004 -0.53585,3.21512 -0.67499,1.68746 -2.39046,3.7092 -3.21513,5.35854 -0.43017,0.86034 -0.76753,1.76674 -1.0717,2.67927 -0.31023,0.93067 -0.34934,9.90197 0,10.71708 1.17104,2.73243 2.90243,5.23256 4.82268,7.50195 0.73877,0.8731 2.0145,1.21274 2.67927,2.14342 1.10702,1.54982 -4.0925,6.23592 -4.28683,6.43025 -0.1263,0.1263 -0.40955,-0.1263 -0.53585,0 -0.2381,0.2381 0,3.08758 0,3.21512 0,0.53586 -0.19902,1.11004 0,1.60756 0.18763,0.46908 0.79146,0.65135 1.0717,1.07171 1.0553,1.58295 -1.02576,11.34482 0,13.39635 0.89251,1.78501 2.33536,3.29507 2.67927,5.35854 0.31773,1.90638 -0.46886,4.01894 0,5.89439 0.27399,1.09595 0.85016,2.10739 1.07171,3.21513 0.1725,0.8625 -0.35262,1.43263 0.53586,2.14341 0.62376,0.49901 1.57857,0.50687 2.14341,1.07171 0.88758,0.88758 -3.32733,3.52657 -2.14341,5.8944 0.64401,1.28803 1.38018,2.5298 2.14341,3.75097 0.13388,0.21421 0.47459,0.2908 0.53586,0.53586 0.24921,0.99685 0.28725,5.56848 0,6.43025 -0.12631,0.3789 -0.78929,0.25343 -1.07171,0.53585 -0.51213,0.51213 0.24089,3.02831 0,3.75098 -0.48348,1.45043 -1.07171,2.7116 -1.07171,4.28683 0,1.7413 -0.60092,6.83597 0,8.03781 0.11297,0.22593 0.44204,0.30132 0.53585,0.53585 0.33826,0.84564 1.17987,2.03526 0.53586,2.67927 -0.25261,0.25261 -0.71447,0 -1.07171,0 -2.69593,0 -0.29469,-2.73279 -1.07171,-4.28683 -1.19907,-2.39815 -5.23117,-2.96039 -6.43025,-5.35854 -0.26991,-0.53983 0.56758,-3.7827 1.07171,-4.28683 0.45539,-0.45539 1.15218,-0.61632 1.60756,-1.07171 0.11297,-0.11296 0,-11.21404 0,-11.78879 0,-3.25266 -1.00377,-3.94716 -1.60756,-6.9661 -0.27498,-1.37493 0.23073,-2.90248 0,-4.28683 -0.7427,-4.45618 -0.14686,-0.44057 -1.07171,-3.21512 -0.38165,-1.14496 0.64462,-2.8968 1.07171,-3.75098 0.4446,-0.88919 0,-3.91452 0,-4.82269 0,-0.73159 -0.66483,-3.3441 -1.07171,-3.75098 -0.1263,-0.1263 -0.50649,0.17619 -0.53585,0 -0.37424,-2.24541 0,-5.16816 0,-7.50195 0,-0.53586 0.23964,-1.12828 0,-1.60756 -0.19768,-0.39535 -4.07691,-4.2971 -2.67927,-5.8944 2.33036,-2.66326 4.31028,-2.70271 6.43025,-4.82268 1.42234,-1.42235 1.53077,-5.12985 1.07171,-6.9661 -0.1562,-0.62479 -0.83253,-1.00961 -1.07171,-1.60757 -0.3834,-0.95848 0.5237,-1.07778 -0.53586,-1.60756 -0.63904,-0.31952 -1.44282,0.14012 -2.14341,0 -1.43349,-0.2867 -1.38891,-1.3692 -2.67927,-2.14341 -0.30633,-0.1838 -0.73281,0.11296 -1.07171,0 -1.06821,-0.35607 -2.14342,-4.72842 -2.14342,-5.35854 0,-1.30934 -0.16284,-9.48253 0.53586,-10.18123 0.21449,-0.21449 0.68096,-0.29021 1.07171,-1.07171 0.32935,-0.65871 0.20649,-1.4847 0.53585,-2.14341 1.72306,-3.44613 1.34656,-1.20914 3.21512,-2.14342 1.74542,0.29499 0.0307,-1.35496 0.53586,-1.60756 0.31952,-0.15976 0.75218,0.15976 1.07171,0 0.3821,-0.19105 1.42346,-5.91083 1.0717,-6.9661 -1.35351,-4.06055 0.1935,0.19349 -1.0717,-1.07171 -0.57076,-0.57075 0.40106,-13.53442 0,-15.53977 -0.62486,-3.12429 -0.42084,-1.37752 -1.07171,-2.67927 -0.11297,-0.22593 -0.47459,-0.29079 -0.53586,-0.53585 -0.12996,-0.51985 0,-1.07171 0,-1.60756 -0.35723,-0.71447 -0.77504,-1.40175 -1.0717,-2.14342 -0.81021,-2.02551 0.28042,-5.25859 0,-7.50195 0.55412,-1.38274 -0.85016,-2.10739 -1.07171,-3.21513 -0.24731,-1.23654 -0.35021,-3.70882 -0.53586,-4.82268 -0.36998,-2.21993 0.009,-4.85916 0.53586,-6.9661 0.62304,-2.49218 0,-6.00593 0,-8.57367 0,-0.89309 0.49539,-1.93617 0,-2.67927 -2.30202,-3.45303 -9.6964,-10.28896 -10.71708,-11.25293 -0.29037,-0.27424 -0.78929,-0.25344 -1.07171,-0.53586 -0.99017,-0.99016 1.23217,0.45563 2.14342,0 0.97529,-0.48764 0.36644,-1.29709 1.0717,-2.14341 0.73219,-0.87863 2.16779,-1.12045 2.67927,-2.14342 0.60835,-1.2167 1.23386,-2.443 1.60757,-3.75098 0.46259,-1.61907 -0.13172,-1.87999 0.53585,-3.21512 0.39211,-0.78421 -0.55597,-2.65915 0,-3.21512 0.6651,-0.66511 1.74624,-0.13868 2.14342,-0.53586 0.16009,-0.1601 -0.0172,-2.07443 0,-2.14341 -0.32298,-0.96987 0.86805,-0.9966 1.0717,-1.60756 0.11297,-0.33891 -0.15976,-0.75219 0,-1.07171 0.17862,-0.35724 0.78929,-0.25344 1.07171,-0.53586"
       id="path2346" />
    <path
       style="fill:#008000;fill-rule:evenodd;stroke:#996600;stroke-width:1.00157;stroke-linejoin:round;paint-order:stroke fill markers"
       d="m 126.46154,117.35202 c 0,5.53716 0,11.07432 0,16.61147 0,1.60757 -0.31527,3.24635 0,4.82269 2.09238,10.46191 0.43379,0.38275 2.67927,3.75098 0.60268,0.90401 -0.4941,2.12943 -0.53586,3.21512 -0.15102,3.92669 -1.19146,8.04418 0,11.78879 0.49423,1.55327 8.34126,8.36055 7.50196,13.39635 -0.36767,2.20599 -1.25589,2.15176 -2.67927,4.28683 -0.22804,0.34206 -2.7817,4.73859 -3.21512,5.89439 -1.088,2.90132 -0.81888,1.8604 0.53585,3.21513 0.1263,0.1263 -0.0148,0.35785 0,0.53585 0.16384,1.96609 0.76637,3.93501 0.53585,5.8944 -0.14,1.18999 -1.10085,2.12933 -1.60756,3.21512 -0.74393,1.59414 -1.54222,3.16942 -2.14341,4.82269 -0.12209,0.33572 0.12543,0.73721 0,1.0717 -2.29116,6.10975 -1.92747,0.15207 -1.60757,9.10952 0.10857,3.03982 -0.27303,6.17729 0.53586,9.10952 1.43748,5.21087 4.76803,6.88958 7.50195,10.71708 0.42806,0.59928 0.86521,1.4847 0.53586,2.14341 -0.82242,1.64484 -1.69197,3.27121 -2.67927,4.82269 -0.27124,0.42622 -0.91195,0.59243 -1.07171,1.07171 -0.57603,1.72807 -0.8141,3.55529 -1.07171,5.35854 -0.1263,0.88411 0.63151,2.04776 0,2.67927 -1.00026,1.00026 -1.32177,-0.10717 -1.60756,1.60756 -1.48321,8.89925 -0.53585,27.22956 -0.53585,36.43807 0,3.21512 0,6.43025 0,9.64537 0,0.71447 -0.3676,1.53076 0,2.14342 0.2906,0.48434 1.14793,0.20754 1.60756,0.53585 0.82221,0.58729 1.34584,1.52308 2.14341,2.14342 0.82212,0.63942 1.74772,1.14178 2.67927,1.60756 0.15976,0.0799 0.40956,-0.1263 0.53586,0 0.63151,0.63151 -0.17515,1.80352 0,2.67927 0.3994,1.99701 1.11362,3.91864 1.60756,5.89439 0.0433,0.17329 0.1263,0.40955 0,0.53586 -0.1263,0.1263 -0.35903,0.0253 -0.53585,0 -1.07557,-0.15366 -2.38667,0.16708 -3.21513,-0.53586 -5.20054,-4.41258 -9.64537,-9.64537 -14.46806,-14.46805 -1.82728,-1.82729 -3.83976,-2.32414 -3.21512,-4.82269 0.0613,-0.24506 0.35272,-0.36187 0.53585,-0.53585 3.38929,-3.21983 6.87559,-6.33974 10.18123,-9.64538 1.99025,-1.99024 2.22589,-4.67846 3.75098,-6.9661 0.56048,-0.84071 1.56398,-1.31565 2.14341,-2.14341 3.31693,-4.73846 2.67927,-6.72364 2.67927,-12.32465 0,-2.14341 0.95857,-4.51311 0,-6.43024 -1.35561,-2.71123 -4.25411,-4.32006 -6.43024,-6.43025 -3.71867,-3.60598 -7.35465,-7.30608 -11.25294,-10.71708 -1.52699,-1.33612 -2.14341,0.12165 -2.14341,-2.14342 0,-0.53585 -0.23964,-1.12828 0,-1.60756 0.56699,-1.13399 7.8447,-13.19081 9.10951,-15.53976 0.8849,-1.64337 -0.91969,-11.1744 0,-12.8605 3.38441,-6.20474 3.22644,-4.29814 8.57367,-9.64537 0.98645,-0.98645 1.77138,-2.15592 2.67927,-3.21512 0.16439,-0.1918 0.71447,-0.35724 0.53585,-0.53586 -0.3994,-0.3994 -1.12651,-0.23982 -1.60756,-0.53585 -1.85688,-1.1427 -3.53644,-2.5536 -5.35854,-3.75098 -4.43064,-2.91156 -9.05856,-5.52549 -13.39635,-8.57366 -4.27811,-3.00625 -5.97432,-3.68287 -7.50195,-7.50196 -2.01854,-5.04634 6.47394,-9.7875 9.64537,-12.32464 0.59565,-0.47653 1.92387,-2.57136 2.67927,-2.67927 2.69923,-0.38561 5.85535,1.11074 8.03781,-1.07171 0.2526,-0.2526 0,-0.71447 0,-1.07171 0,-1.0717 0.28198,-2.18118 0,-3.21512 -0.27404,-1.00481 -1.19729,-1.72197 -1.60757,-2.67927 -0.6881,-1.60557 0,-10.55227 0,-12.32464 0,-7.14472 0,-14.28944 0,-21.43416"
       id="path2348" />
  </g>
</svg>
