<?xml version="1.0" encoding="UTF-8" standalone="no"?>
<!-- Created with Inkscape (http://www.inkscape.org/) -->

<svg
   width="210mm"
   height="297mm"
   viewBox="0 0 210 297"
   version="1.1"
   id="svg5"
   sodipodi:docname="drawing-1.svg"
   inkscape:version="1.2.1 (9c6d41e410, 2022-07-14)"
   inkscape:export-filename="favicon.jpg"
   inkscape:export-xdpi="56.62648"
   inkscape:export-ydpi="56.62648"
   xmlns:inkscape="http://www.inkscape.org/namespaces/inkscape"
   xmlns:sodipodi="http://sodipodi.sourceforge.net/DTD/sodipodi-0.dtd"
   xmlns="http://www.w3.org/2000/svg"
   xmlns:svg="http://www.w3.org/2000/svg">
  <sodipodi:namedview
     id="namedview7"
     pagecolor="#ffffff"
     bordercolor="#000000"
     borderopacity="0.25"
     inkscape:showpageshadow="2"
     inkscape:pageopacity="0.0"
     inkscape:pagecheckerboard="0"
     inkscape:deskcolor="#d1d1d1"
     inkscape:document-units="mm"
     showgrid="false"
     inkscape:zoom="0.46740671"
     inkscape:cx="117.67054"
     inkscape:cy="422.54421"
     inkscape:window-width="1280"
     inkscape:window-height="961"
     inkscape:window-x="-8"
     inkscape:window-y="-8"
     inkscape:window-maximized="1"
     inkscape:current-layer="g1856" />
  <defs
     id="defs2">
    <rect
       x="-57.765538"
       y="293.10662"
       width="915.69075"
       height="849.36735"
       id="rect1849" />
    <rect
       x="-3.0256595"
       y="475.02855"
       width="447.79761"
       height="69.590169"
       id="rect899" />
    <rect
       x="532.51608"
       y="450.82327"
       width="282.89917"
       height="213.30899"
       id="rect791" />
    <rect
       x="65.05168"
       y="585.46512"
       width="830.54355"
       height="397.87423"
       id="rect365" />
    <rect
       x="65.05168"
       y="585.46512"
       width="830.54355"
       height="397.87423"
       id="rect1935" />
    <rect
       x="532.51608"
       y="450.82327"
       width="282.89917"
       height="213.30899"
       id="rect1937" />
    <rect
       x="-3.0256595"
       y="475.02855"
       width="447.79761"
       height="69.590169"
       id="rect1939" />
  </defs>
  <g
     inkscape:label="Layer 1"
     inkscape:groupmode="layer"
     id="layer1"
     style="display:inline">
    <g
       id="g1883"
       transform="translate(-48.115662,5.6606661)">
      <g
         id="g1856"
         transform="translate(5.0945995,1.6981999)">
        <g
           id="g1907"
           transform="translate(-175.48065,-5.0945995)">
          <g
             id="g1867"
             transform="translate(-3.3964003,0.56606656)"
             style="display:inline">
            <g
               inkscape:label="QR Code: helloworld"
               transform="matrix(0.264583,0,0,0.264583,171.71601,25.817251)"
               id="g195"
               style="stroke:#996600">
              <rect
                 x="0"
                 y="0"
                 width="116"
                 height="116"
                 style="fill:#ffffff;stroke:#996600"
                 id="rect189" />
              <g
                 style="fill:#000000;stroke:#996600"
                 id="g193">
                <path
                   d="M 95.6,100 H 92.4 C 92.179086,100 92,99.820914 92,99.6 V 96 h 3.6 c 0.220914,0 0.4,0.179086 0.4,0.4 v 3.2 c 0,0.220914 -0.179086,0.4 -0.4,0.4 z m -12,0 H 80.4 C 80.179086,100 80,99.820914 80,99.6 V 96.4 C 80,96.179086 79.820914,96 79.6,96 H 76.4 C 76.179086,96 76,95.820914 76,95.6 V 92 h 3.6 C 79.820914,92 80,91.820914 80,91.6 V 88.4 C 80,88.179086 79.820914,88 79.6,88 H 76 v -4 h 11.6 c 0.220914,0 0.4,0.179086 0.4,0.4 v 3.2 c 0,0.220914 0.179086,0.4 0.4,0.4 h 11.2 c 0.220914,0 0.4,0.179086 0.4,0.4 v 3.2 c 0,0.220914 -0.179086,0.4 -0.4,0.4 H 92.4 C 92.179086,92 92,92.179086 92,92.4 V 96 H 84.4 C 84.179086,96 84,96.179086 84,96.4 v 3.2 c 0,0.220914 -0.179086,0.4 -0.4,0.4 z m -20,0 H 56.4 C 56.179086,100 56,99.820914 56,99.6 V 96.4 C 56,96.179086 55.820914,96 55.6,96 H 52.4 C 52.179086,96 52,96.179086 52,96.4 v 3.2 c 0,0.220914 -0.179086,0.4 -0.4,0.4 H 48.4 C 48.179086,100 48,99.820914 48,99.6 V 92.4 C 48,92.179086 48.179086,92 48.4,92 h 3.2 C 51.820914,92 52,91.820914 52,91.6 V 84.4 C 52,84.179086 52.179086,84 52.4,84 h 3.2 c 0.220914,0 0.4,0.179086 0.4,0.4 v 7.2 c 0,0.220914 0.179086,0.4 0.4,0.4 h 3.2 c 0.220914,0 0.4,0.179086 0.4,0.4 v 3.2 c 0,0.220914 0.179086,0.4 0.4,0.4 h 3.2 c 0.220914,0 0.4,0.179086 0.4,0.4 v 3.2 c 0,0.220914 -0.179086,0.4 -0.4,0.4 z m -20,0 H 16.4 C 16.179086,100 16,99.820914 16,99.6 V 72.4 C 16,72.179086 16.179086,72 16.4,72 h 27.2 c 0.220914,0 0.4,0.179086 0.4,0.4 v 27.2 c 0,0.220914 -0.179086,0.4 -0.4,0.4 z M 40,95.6 V 76.4 C 40,76.179086 39.820914,76 39.6,76 H 20.4 C 20.179086,76 20,76.179086 20,76.4 v 19.2 c 0,0.220914 0.179086,0.4 0.4,0.4 H 39.6 C 39.820914,96 40,95.820914 40,95.6 Z M 75.6,92 H 68.4 C 68.179086,92 68,91.820914 68,91.6 V 88.4 C 68,88.179086 67.820914,88 67.6,88 H 64.4 C 64.179086,88 64,87.820914 64,87.6 V 80.4 C 64,80.179086 63.820914,80 63.6,80 H 48.4 C 48.179086,80 48,79.820914 48,79.6 V 68.4 C 48,68.179086 47.820914,68 47.6,68 H 40.4 C 40.179086,68 40,67.820914 40,67.6 V 64.4 C 40,64.179086 40.179086,64 40.4,64 h 3.2 C 43.820914,64 44,63.820914 44,63.6 V 60.4 C 44,60.179086 43.820914,60 43.6,60 H 36.4 C 36.179086,60 36,60.179086 36,60.4 v 3.2 C 36,63.820914 35.820914,64 35.6,64 H 32.4 C 32.179086,64 32,63.820914 32,63.6 V 52.4 C 32,52.179086 32.179086,52 32.4,52 h 3.2 C 35.820914,52 36,51.820914 36,51.6 V 48.4 C 36,48.179086 36.179086,48 36.4,48 h 11.2 c 0.220914,0 0.4,0.179086 0.4,0.4 v 3.2 c 0,0.220914 0.179086,0.4 0.4,0.4 H 52 v 7.6 c 0,0.220914 0.179086,0.4 0.4,0.4 H 56 v 3.6 c 0,0.220914 0.179086,0.4 0.4,0.4 h 3.2 c 0.220914,0 0.4,0.179086 0.4,0.4 V 68 H 56.4 C 56.179086,68 56,68.179086 56,68.4 V 72 H 52.4 C 52.179086,72 52,72.179086 52,72.4 v 3.2 c 0,0.220914 0.179086,0.4 0.4,0.4 h 3.2 C 55.820914,76 56,75.820914 56,75.6 V 72 h 4 v 3.6 c 0,0.220914 0.179086,0.4 0.4,0.4 h 3.2 C 63.820914,76 64,75.820914 64,75.6 V 72.4 C 64,72.179086 63.820914,72 63.6,72 H 60 v -4 h 7.6 C 67.820914,68 68,67.820914 68,67.6 V 60.4 C 68,60.179086 68.179086,60 68.4,60 H 72 v 7.6 c 0,0.220914 0.179086,0.4 0.4,0.4 h 3.2 c 0.220914,0 0.4,0.179086 0.4,0.4 v 3.2 C 76,71.820914 75.820914,72 75.6,72 H 68.4 C 68.179086,72 68,72.179086 68,72.4 v 3.2 c 0,0.220914 0.179086,0.4 0.4,0.4 h 11.2 c 0.220914,0 0.4,0.179086 0.4,0.4 v 3.2 C 80,79.820914 79.820914,80 79.6,80 H 76.4 C 76.179086,80 76,80.179086 76,80.4 V 84 H 72 V 80.4 C 72,80.179086 71.820914,80 71.6,80 H 68.4 C 68.179086,80 68,80.179086 68,80.4 v 3.2 c 0,0.220914 0.179086,0.4 0.4,0.4 H 72 v 3.6 c 0,0.220914 0.179086,0.4 0.4,0.4 H 76 v 4 z m -40,0 H 24.4 C 24.179086,92 24,91.820914 24,91.6 V 80.4 C 24,80.179086 24.179086,80 24.4,80 h 11.2 c 0.220914,0 0.4,0.179086 0.4,0.4 v 11.2 c 0,0.220914 -0.179086,0.4 -0.4,0.4 z m 64,-8 H 96.4 C 96.179086,84 96,83.820914 96,83.6 V 80.4 C 96,80.179086 96.179086,80 96.4,80 h 3.2 c 0.220914,0 0.4,0.179086 0.4,0.4 v 3.2 c 0,0.220914 -0.179086,0.4 -0.4,0.4 z m -8,-4 H 84.4 C 84.179086,80 84,79.820914 84,79.6 V 76.4 C 84,76.179086 84.179086,76 84.4,76 h 3.2 C 87.820914,76 88,75.820914 88,75.6 V 72 h 8 v 3.6 C 96,75.820914 95.820914,76 95.6,76 H 92.4 C 92.179086,76 92,76.179086 92,76.4 v 3.2 c 0,0.220914 -0.179086,0.4 -0.4,0.4 z m 8,-8 H 96 v -4 h 3.6 c 0.220914,0 0.4,0.179086 0.4,0.4 v 3.2 c 0,0.220914 -0.179086,0.4 -0.4,0.4 z m -12,0 H 80.4 C 80.179086,72 80,71.820914 80,71.6 V 68.4 C 80,68.179086 80.179086,68 80.4,68 h 3.2 C 83.820914,68 84,67.820914 84,67.6 V 64.4 C 84,64.179086 83.820914,64 83.6,64 H 76.4 C 76.179086,64 76,63.820914 76,63.6 V 60 h 7.6 C 83.820914,60 84,59.820914 84,59.6 V 52.4 C 84,52.179086 83.820914,52 83.6,52 H 80 V 48.4 C 80,48.179086 80.179086,48 80.4,48 h 7.2 c 0.220914,0 0.4,0.179086 0.4,0.4 v 3.2 c 0,0.220914 0.179086,0.4 0.4,0.4 h 3.2 c 0.220914,0 0.4,0.179086 0.4,0.4 v 3.2 c 0,0.220914 0.179086,0.4 0.4,0.4 h 3.2 c 0.220914,0 0.4,0.179086 0.4,0.4 v 3.2 C 96,59.820914 95.820914,60 95.6,60 H 92.4 C 92.179086,60 92,60.179086 92,60.4 V 64 H 88.4 C 88.179086,64 88,64.179086 88,64.4 V 72 Z m 8,-4 H 92.4 C 92.179086,68 92,67.820914 92,67.6 V 64 h 3.6 c 0.220914,0 0.4,0.179086 0.4,0.4 V 68 Z m -72,0 H 16.4 C 16.179086,68 16,67.820914 16,67.6 V 64.4 C 16,64.179086 16.179086,64 16.4,64 h 3.2 C 19.820914,64 20,63.820914 20,63.6 V 60 h 7.6 c 0.220914,0 0.4,0.179086 0.4,0.4 v 3.2 C 28,63.820914 27.820914,64 27.6,64 H 24.4 C 24.179086,64 24,64.179086 24,64.4 v 3.2 c 0,0.220914 -0.179086,0.4 -0.4,0.4 z m 52,-8 H 72 V 52.4 C 72,52.179086 72.179086,52 72.4,52 H 80 v 3.6 C 80,55.820914 79.820914,56 79.6,56 H 76.4 C 76.179086,56 76,56.179086 76,56.4 V 60 Z m -12,0 H 56 v -8 h 3.6 c 0.220914,0 0.4,0.179086 0.4,0.4 v 3.2 c 0,0.220914 0.179086,0.4 0.4,0.4 H 64 v 3.6 c 0,0.220914 -0.179086,0.4 -0.4,0.4 z m -44,0 H 16.4 C 16.179086,60 16,59.820914 16,59.6 V 48.4 C 16,48.179086 16.179086,48 16.4,48 h 7.2 c 0.220914,0 0.4,0.179086 0.4,0.4 v 7.2 C 24,55.820914 23.820914,56 23.6,56 H 20.4 C 20.179086,56 20,56.179086 20,56.4 V 60 Z m 48,-4 H 64 V 48.4 C 64,48.179086 63.820914,48 63.6,48 H 56.4 C 56.179086,48 56,48.179086 56,48.4 V 52 h -4 v -8 h 3.6 C 55.820914,44 56,43.820914 56,43.6 V 32.4 C 56,32.179086 55.820914,32 55.6,32 H 52.4 C 52.179086,32 52,32.179086 52,32.4 v 3.2 C 52,35.820914 51.820914,36 51.6,36 H 48.4 C 48.179086,36 48,35.820914 48,35.6 V 28.4 C 48,28.179086 48.179086,28 48.4,28 h 3.2 C 51.820914,28 52,27.820914 52,27.6 V 16.4 C 52,16.179086 52.179086,16 52.4,16 h 15.2 c 0.220914,0 0.4,0.179086 0.4,0.4 v 3.2 C 68,19.820914 67.820914,20 67.6,20 H 64.4 C 64.179086,20 64,20.179086 64,20.4 v 3.2 C 64,23.820914 63.820914,24 63.6,24 H 60.4 C 60.179086,24 60,23.820914 60,23.6 V 20.4 C 60,20.179086 59.820914,20 59.6,20 H 56.4 C 56.179086,20 56,20.179086 56,20.4 v 7.2 c 0,0.220914 0.179086,0.4 0.4,0.4 h 7.2 c 0.220914,0 0.4,0.179086 0.4,0.4 v 3.2 c 0,0.220914 0.179086,0.4 0.4,0.4 h 3.2 c 0.220914,0 0.4,0.179086 0.4,0.4 V 55.6 C 68,55.820914 67.820914,56 67.6,56 Z M 44,55.6 V 52.4 C 44,52.179086 43.820914,52 43.6,52 H 40.4 C 40.179086,52 40,52.179086 40,52.4 v 3.2 c 0,0.220914 0.179086,0.4 0.4,0.4 h 3.2 C 43.820914,56 44,55.820914 44,55.6 Z M 99.6,44 H 72.4 C 72.179086,44 72,43.820914 72,43.6 V 16.4 C 72,16.179086 72.179086,16 72.4,16 h 27.2 c 0.220914,0 0.4,0.179086 0.4,0.4 v 27.2 c 0,0.220914 -0.179086,0.4 -0.4,0.4 z M 64,43.6 V 36.4 C 64,36.179086 63.820914,36 63.6,36 H 60.4 C 60.179086,36 60,36.179086 60,36.4 v 7.2 c 0,0.220914 0.179086,0.4 0.4,0.4 h 3.2 C 63.820914,44 64,43.820914 64,43.6 Z M 51.6,44 H 48.4 C 48.179086,44 48,43.820914 48,43.6 V 40.4 C 48,40.179086 48.179086,40 48.4,40 h 3.2 c 0.220914,0 0.4,0.179086 0.4,0.4 V 44 Z m -8,0 H 16.4 C 16.179086,44 16,43.820914 16,43.6 V 16.4 C 16,16.179086 16.179086,16 16.4,16 h 27.2 c 0.220914,0 0.4,0.179086 0.4,0.4 V 43.6 C 44,43.820914 43.820914,44 43.6,44 Z M 96,39.6 V 20.4 C 96,20.179086 95.820914,20 95.6,20 H 76.4 C 76.179086,20 76,20.179086 76,20.4 v 19.2 c 0,0.220914 0.179086,0.4 0.4,0.4 h 19.2 c 0.220914,0 0.4,-0.179086 0.4,-0.4 z m -56,0 V 20.4 C 40,20.179086 39.820914,20 39.6,20 H 20.4 C 20.179086,20 20,20.179086 20,20.4 v 19.2 c 0,0.220914 0.179086,0.4 0.4,0.4 H 39.6 C 39.820914,40 40,39.820914 40,39.6 Z M 91.6,36 H 80.4 C 80.179086,36 80,35.820914 80,35.6 V 24.4 C 80,24.179086 80.179086,24 80.4,24 h 11.2 c 0.220914,0 0.4,0.179086 0.4,0.4 v 11.2 c 0,0.220914 -0.179086,0.4 -0.4,0.4 z m -56,0 H 24.4 C 24.179086,36 24,35.820914 24,35.6 V 24.4 C 24,24.179086 24.179086,24 24.4,24 h 11.2 c 0.220914,0 0.4,0.179086 0.4,0.4 v 11.2 c 0,0.220914 -0.179086,0.4 -0.4,0.4 z"
                   id="path191"
                   style="stroke:#996600" />
              </g>
            </g>
            <text
               xml:space="preserve"
               transform="matrix(0.26458333,0,0,0.26458333,-30.820755,-157.7062)"
               id="text363"
               style="font-size:74.6667px;text-align:center;white-space:pre;shape-inside:url(#rect365);display:inline;fill:#ff0000;fill-rule:evenodd;stroke-width:1.00157;stroke-linejoin:round;paint-order:stroke fill markers"><tspan
                 x="109.94286"
                 y="653.58554"
                 id="tspan2297"><tspan
                   style="fill:#993366"
                   id="tspan2295">pleasescan your QR </tspan></tspan><tspan
                 x="226.40906"
                 y="746.91891"
                 id="tspan2301"><tspan
                   style="fill:#993366"
                   id="tspan2299">code or email</tspan></tspan></text>
            <text
               xml:space="preserve"
               transform="matrix(0.26458333,0,0,0.26458333,-17.21159,-62.842318)"
               id="text789"
               style="font-size:74.6667px;text-align:center;white-space:pre;shape-inside:url(#rect791);display:inline;fill:#66ccff;fill-rule:evenodd;stroke-width:1.00157;stroke-linejoin:round;paint-order:stroke fill markers"><tspan
                 x="572.50223"
                 y="518.94491"
                 id="tspan2303">email</tspan></text>
            <text
               xml:space="preserve"
               transform="matrix(0.26458333,0,0,0.26458333,0,-68.045822)"
               id="text897"
               style="font-size:53.3333px;text-align:center;white-space:pre;shape-inside:url(#rect899);display:inline;fill:#cc6699;fill-rule:evenodd;stroke-width:1.00157;stroke-linejoin:round;paint-order:stroke fill markers"><tspan
                 x="2.7091144"
                 y="523.68688"
                 id="tspan2305">write here email</tspan></text>
          </g>
          <path
             style="fill:#990000;fill-rule:evenodd;stroke-width:0.264999;stroke-linejoin:round;paint-order:stroke fill markers"
             d="m 140.05411,86.88694 c 15.8735,11.73189 18.54582,18.27898 28.81941,26.41779 l -16.81132,14.00943 -19.61321,-21.21429 -2.80189,88.0593 c -27.48518,-2.548 -51.197778,-10.91747 -82.455523,2.80189 l 1.200809,-95.66442 -26.81806,27.6186 L 6.7643531,111.30338 33.982682,81.68343 50.393733,75.27912 c 33.311428,17.74743 53.420097,8.96545 72.048517,-0.40027 l 20.01348,12.80862 z"
             id="path1474"
             sodipodi:nodetypes="cccccccccccccc" />
          <path
             style="fill:#000033;fill-rule:evenodd;stroke:#996600;stroke-width:0.264999;stroke-linejoin:round;paint-order:stroke fill markers"
             d="m 48.681729,206.61431 c 1.552293,29.81284 1.708825,59.62568 3.396398,89.43852 l 18.680198,1.6982 -2.830332,-85.47605 c 21.23197,24.20287 34.770507,11.61257 44.153197,0.56606 l 2.83033,82.64572 19.24627,0.56609 -3.96247,-101.892 c -20.34565,-3.40365 -40.463639,-5.78278 -59.593867,-3.717 -7.670394,0.82829 -15.18199,2.37117 -22.485792,4.84913 z"
             id="path1654"
             sodipodi:nodetypes="ccccccccscc" />
        </g>
        <g
           id="g1933"
           transform="matrix(1.0195623,0,0,0.97523733,48.74781,-6.7744033)">
          <g
             id="g1927"
             transform="translate(-3.3964003,0.56606656)"
             style="display:inline">
            <g
               inkscape:label="QR Code: helloworld"
               transform="matrix(0.264583,0,0,0.264583,171.71601,25.817251)"
               id="g1915"
               style="stroke:#996600">
              <rect
                 x="0"
                 y="0"
                 width="116"
                 height="116"
                 style="fill:#ffffff;stroke:#996600"
                 id="rect1909" />
              <g
                 style="fill:#000000;stroke:#996600"
                 id="g1913">
                <path
                   d="M 95.6,100 H 92.4 C 92.179086,100 92,99.820914 92,99.6 V 96 h 3.6 c 0.220914,0 0.4,0.179086 0.4,0.4 v 3.2 c 0,0.220914 -0.179086,0.4 -0.4,0.4 z m -12,0 H 80.4 C 80.179086,100 80,99.820914 80,99.6 V 96.4 C 80,96.179086 79.820914,96 79.6,96 H 76.4 C 76.179086,96 76,95.820914 76,95.6 V 92 h 3.6 C 79.820914,92 80,91.820914 80,91.6 V 88.4 C 80,88.179086 79.820914,88 79.6,88 H 76 v -4 h 11.6 c 0.220914,0 0.4,0.179086 0.4,0.4 v 3.2 c 0,0.220914 0.179086,0.4 0.4,0.4 h 11.2 c 0.220914,0 0.4,0.179086 0.4,0.4 v 3.2 c 0,0.220914 -0.179086,0.4 -0.4,0.4 H 92.4 C 92.179086,92 92,92.179086 92,92.4 V 96 H 84.4 C 84.179086,96 84,96.179086 84,96.4 v 3.2 c 0,0.220914 -0.179086,0.4 -0.4,0.4 z m -20,0 H 56.4 C 56.179086,100 56,99.820914 56,99.6 V 96.4 C 56,96.179086 55.820914,96 55.6,96 H 52.4 C 52.179086,96 52,96.179086 52,96.4 v 3.2 c 0,0.220914 -0.179086,0.4 -0.4,0.4 H 48.4 C 48.179086,100 48,99.820914 48,99.6 V 92.4 C 48,92.179086 48.179086,92 48.4,92 h 3.2 C 51.820914,92 52,91.820914 52,91.6 V 84.4 C 52,84.179086 52.179086,84 52.4,84 h 3.2 c 0.220914,0 0.4,0.179086 0.4,0.4 v 7.2 c 0,0.220914 0.179086,0.4 0.4,0.4 h 3.2 c 0.220914,0 0.4,0.179086 0.4,0.4 v 3.2 c 0,0.220914 0.179086,0.4 0.4,0.4 h 3.2 c 0.220914,0 0.4,0.179086 0.4,0.4 v 3.2 c 0,0.220914 -0.179086,0.4 -0.4,0.4 z m -20,0 H 16.4 C 16.179086,100 16,99.820914 16,99.6 V 72.4 C 16,72.179086 16.179086,72 16.4,72 h 27.2 c 0.220914,0 0.4,0.179086 0.4,0.4 v 27.2 c 0,0.220914 -0.179086,0.4 -0.4,0.4 z M 40,95.6 V 76.4 C 40,76.179086 39.820914,76 39.6,76 H 20.4 C 20.179086,76 20,76.179086 20,76.4 v 19.2 c 0,0.220914 0.179086,0.4 0.4,0.4 H 39.6 C 39.820914,96 40,95.820914 40,95.6 Z M 75.6,92 H 68.4 C 68.179086,92 68,91.820914 68,91.6 V 88.4 C 68,88.179086 67.820914,88 67.6,88 H 64.4 C 64.179086,88 64,87.820914 64,87.6 V 80.4 C 64,80.179086 63.820914,80 63.6,80 H 48.4 C 48.179086,80 48,79.820914 48,79.6 V 68.4 C 48,68.179086 47.820914,68 47.6,68 H 40.4 C 40.179086,68 40,67.820914 40,67.6 V 64.4 C 40,64.179086 40.179086,64 40.4,64 h 3.2 C 43.820914,64 44,63.820914 44,63.6 V 60.4 C 44,60.179086 43.820914,60 43.6,60 H 36.4 C 36.179086,60 36,60.179086 36,60.4 v 3.2 C 36,63.820914 35.820914,64 35.6,64 H 32.4 C 32.179086,64 32,63.820914 32,63.6 V 52.4 C 32,52.179086 32.179086,52 32.4,52 h 3.2 C 35.820914,52 36,51.820914 36,51.6 V 48.4 C 36,48.179086 36.179086,48 36.4,48 h 11.2 c 0.220914,0 0.4,0.179086 0.4,0.4 v 3.2 c 0,0.220914 0.179086,0.4 0.4,0.4 H 52 v 7.6 c 0,0.220914 0.179086,0.4 0.4,0.4 H 56 v 3.6 c 0,0.220914 0.179086,0.4 0.4,0.4 h 3.2 c 0.220914,0 0.4,0.179086 0.4,0.4 V 68 H 56.4 C 56.179086,68 56,68.179086 56,68.4 V 72 H 52.4 C 52.179086,72 52,72.179086 52,72.4 v 3.2 c 0,0.220914 0.179086,0.4 0.4,0.4 h 3.2 C 55.820914,76 56,75.820914 56,75.6 V 72 h 4 v 3.6 c 0,0.220914 0.179086,0.4 0.4,0.4 h 3.2 C 63.820914,76 64,75.820914 64,75.6 V 72.4 C 64,72.179086 63.820914,72 63.6,72 H 60 v -4 h 7.6 C 67.820914,68 68,67.820914 68,67.6 V 60.4 C 68,60.179086 68.179086,60 68.4,60 H 72 v 7.6 c 0,0.220914 0.179086,0.4 0.4,0.4 h 3.2 c 0.220914,0 0.4,0.179086 0.4,0.4 v 3.2 C 76,71.820914 75.820914,72 75.6,72 H 68.4 C 68.179086,72 68,72.179086 68,72.4 v 3.2 c 0,0.220914 0.179086,0.4 0.4,0.4 h 11.2 c 0.220914,0 0.4,0.179086 0.4,0.4 v 3.2 C 80,79.820914 79.820914,80 79.6,80 H 76.4 C 76.179086,80 76,80.179086 76,80.4 V 84 H 72 V 80.4 C 72,80.179086 71.820914,80 71.6,80 H 68.4 C 68.179086,80 68,80.179086 68,80.4 v 3.2 c 0,0.220914 0.179086,0.4 0.4,0.4 H 72 v 3.6 c 0,0.220914 0.179086,0.4 0.4,0.4 H 76 v 4 z m -40,0 H 24.4 C 24.179086,92 24,91.820914 24,91.6 V 80.4 C 24,80.179086 24.179086,80 24.4,80 h 11.2 c 0.220914,0 0.4,0.179086 0.4,0.4 v 11.2 c 0,0.220914 -0.179086,0.4 -0.4,0.4 z m 64,-8 H 96.4 C 96.179086,84 96,83.820914 96,83.6 V 80.4 C 96,80.179086 96.179086,80 96.4,80 h 3.2 c 0.220914,0 0.4,0.179086 0.4,0.4 v 3.2 c 0,0.220914 -0.179086,0.4 -0.4,0.4 z m -8,-4 H 84.4 C 84.179086,80 84,79.820914 84,79.6 V 76.4 C 84,76.179086 84.179086,76 84.4,76 h 3.2 C 87.820914,76 88,75.820914 88,75.6 V 72 h 8 v 3.6 C 96,75.820914 95.820914,76 95.6,76 H 92.4 C 92.179086,76 92,76.179086 92,76.4 v 3.2 c 0,0.220914 -0.179086,0.4 -0.4,0.4 z m 8,-8 H 96 v -4 h 3.6 c 0.220914,0 0.4,0.179086 0.4,0.4 v 3.2 c 0,0.220914 -0.179086,0.4 -0.4,0.4 z m -12,0 H 80.4 C 80.179086,72 80,71.820914 80,71.6 V 68.4 C 80,68.179086 80.179086,68 80.4,68 h 3.2 C 83.820914,68 84,67.820914 84,67.6 V 64.4 C 84,64.179086 83.820914,64 83.6,64 H 76.4 C 76.179086,64 76,63.820914 76,63.6 V 60 h 7.6 C 83.820914,60 84,59.820914 84,59.6 V 52.4 C 84,52.179086 83.820914,52 83.6,52 H 80 V 48.4 C 80,48.179086 80.179086,48 80.4,48 h 7.2 c 0.220914,0 0.4,0.179086 0.4,0.4 v 3.2 c 0,0.220914 0.179086,0.4 0.4,0.4 h 3.2 c 0.220914,0 0.4,0.179086 0.4,0.4 v 3.2 c 0,0.220914 0.179086,0.4 0.4,0.4 h 3.2 c 0.220914,0 0.4,0.179086 0.4,0.4 v 3.2 C 96,59.820914 95.820914,60 95.6,60 H 92.4 C 92.179086,60 92,60.179086 92,60.4 V 64 H 88.4 C 88.179086,64 88,64.179086 88,64.4 V 72 Z m 8,-4 H 92.4 C 92.179086,68 92,67.820914 92,67.6 V 64 h 3.6 c 0.220914,0 0.4,0.179086 0.4,0.4 V 68 Z m -72,0 H 16.4 C 16.179086,68 16,67.820914 16,67.6 V 64.4 C 16,64.179086 16.179086,64 16.4,64 h 3.2 C 19.820914,64 20,63.820914 20,63.6 V 60 h 7.6 c 0.220914,0 0.4,0.179086 0.4,0.4 v 3.2 C 28,63.820914 27.820914,64 27.6,64 H 24.4 C 24.179086,64 24,64.179086 24,64.4 v 3.2 c 0,0.220914 -0.179086,0.4 -0.4,0.4 z m 52,-8 H 72 V 52.4 C 72,52.179086 72.179086,52 72.4,52 H 80 v 3.6 C 80,55.820914 79.820914,56 79.6,56 H 76.4 C 76.179086,56 76,56.179086 76,56.4 V 60 Z m -12,0 H 56 v -8 h 3.6 c 0.220914,0 0.4,0.179086 0.4,0.4 v 3.2 c 0,0.220914 0.179086,0.4 0.4,0.4 H 64 v 3.6 c 0,0.220914 -0.179086,0.4 -0.4,0.4 z m -44,0 H 16.4 C 16.179086,60 16,59.820914 16,59.6 V 48.4 C 16,48.179086 16.179086,48 16.4,48 h 7.2 c 0.220914,0 0.4,0.179086 0.4,0.4 v 7.2 C 24,55.820914 23.820914,56 23.6,56 H 20.4 C 20.179086,56 20,56.179086 20,56.4 V 60 Z m 48,-4 H 64 V 48.4 C 64,48.179086 63.820914,48 63.6,48 H 56.4 C 56.179086,48 56,48.179086 56,48.4 V 52 h -4 v -8 h 3.6 C 55.820914,44 56,43.820914 56,43.6 V 32.4 C 56,32.179086 55.820914,32 55.6,32 H 52.4 C 52.179086,32 52,32.179086 52,32.4 v 3.2 C 52,35.820914 51.820914,36 51.6,36 H 48.4 C 48.179086,36 48,35.820914 48,35.6 V 28.4 C 48,28.179086 48.179086,28 48.4,28 h 3.2 C 51.820914,28 52,27.820914 52,27.6 V 16.4 C 52,16.179086 52.179086,16 52.4,16 h 15.2 c 0.220914,0 0.4,0.179086 0.4,0.4 v 3.2 C 68,19.820914 67.820914,20 67.6,20 H 64.4 C 64.179086,20 64,20.179086 64,20.4 v 3.2 C 64,23.820914 63.820914,24 63.6,24 H 60.4 C 60.179086,24 60,23.820914 60,23.6 V 20.4 C 60,20.179086 59.820914,20 59.6,20 H 56.4 C 56.179086,20 56,20.179086 56,20.4 v 7.2 c 0,0.220914 0.179086,0.4 0.4,0.4 h 7.2 c 0.220914,0 0.4,0.179086 0.4,0.4 v 3.2 c 0,0.220914 0.179086,0.4 0.4,0.4 h 3.2 c 0.220914,0 0.4,0.179086 0.4,0.4 V 55.6 C 68,55.820914 67.820914,56 67.6,56 Z M 44,55.6 V 52.4 C 44,52.179086 43.820914,52 43.6,52 H 40.4 C 40.179086,52 40,52.179086 40,52.4 v 3.2 c 0,0.220914 0.179086,0.4 0.4,0.4 h 3.2 C 43.820914,56 44,55.820914 44,55.6 Z M 99.6,44 H 72.4 C 72.179086,44 72,43.820914 72,43.6 V 16.4 C 72,16.179086 72.179086,16 72.4,16 h 27.2 c 0.220914,0 0.4,0.179086 0.4,0.4 v 27.2 c 0,0.220914 -0.179086,0.4 -0.4,0.4 z M 64,43.6 V 36.4 C 64,36.179086 63.820914,36 63.6,36 H 60.4 C 60.179086,36 60,36.179086 60,36.4 v 7.2 c 0,0.220914 0.179086,0.4 0.4,0.4 h 3.2 C 63.820914,44 64,43.820914 64,43.6 Z M 51.6,44 H 48.4 C 48.179086,44 48,43.820914 48,43.6 V 40.4 C 48,40.179086 48.179086,40 48.4,40 h 3.2 c 0.220914,0 0.4,0.179086 0.4,0.4 V 44 Z m -8,0 H 16.4 C 16.179086,44 16,43.820914 16,43.6 V 16.4 C 16,16.179086 16.179086,16 16.4,16 h 27.2 c 0.220914,0 0.4,0.179086 0.4,0.4 V 43.6 C 44,43.820914 43.820914,44 43.6,44 Z M 96,39.6 V 20.4 C 96,20.179086 95.820914,20 95.6,20 H 76.4 C 76.179086,20 76,20.179086 76,20.4 v 19.2 c 0,0.220914 0.179086,0.4 0.4,0.4 h 19.2 c 0.220914,0 0.4,-0.179086 0.4,-0.4 z m -56,0 V 20.4 C 40,20.179086 39.820914,20 39.6,20 H 20.4 C 20.179086,20 20,20.179086 20,20.4 v 19.2 c 0,0.220914 0.179086,0.4 0.4,0.4 H 39.6 C 39.820914,40 40,39.820914 40,39.6 Z M 91.6,36 H 80.4 C 80.179086,36 80,35.820914 80,35.6 V 24.4 C 80,24.179086 80.179086,24 80.4,24 h 11.2 c 0.220914,0 0.4,0.179086 0.4,0.4 v 11.2 c 0,0.220914 -0.179086,0.4 -0.4,0.4 z m -56,0 H 24.4 C 24.179086,36 24,35.820914 24,35.6 V 24.4 C 24,24.179086 24.179086,24 24.4,24 h 11.2 c 0.220914,0 0.4,0.179086 0.4,0.4 v 11.2 c 0,0.220914 -0.179086,0.4 -0.4,0.4 z"
                   id="path1911"
                   style="stroke:#996600" />
              </g>
            </g>
            <text
               xml:space="preserve"
               transform="matrix(0.26458333,0,0,0.26458333,-30.820755,-157.7062)"
               id="text1919"
               style="font-size:74.6667px;text-align:center;white-space:pre;shape-inside:url(#rect1935);display:inline;fill:#ff0000;fill-rule:evenodd;stroke-width:1.00157;stroke-linejoin:round;paint-order:stroke fill markers"><tspan
                 x="109.94286"
                 y="653.58554"
                 id="tspan2309"><tspan
                   style="fill:#66ff33"
                   id="tspan2307">pleasescan your QR </tspan></tspan><tspan
                 x="226.40906"
                 y="746.91891"
                 id="tspan2313"><tspan
                   style="fill:#66ff33"
                   id="tspan2311">code or email</tspan></tspan></text>
            <text
               xml:space="preserve"
               transform="matrix(0.26458333,0,0,0.26458333,-17.21159,-62.842318)"
               id="text1923"
               style="font-size:74.6667px;text-align:center;white-space:pre;shape-inside:url(#rect1937);display:inline;fill:#66ccff;fill-rule:evenodd;stroke-width:1.00157;stroke-linejoin:round;paint-order:stroke fill markers"><tspan
                 x="572.50223"
                 y="518.94491"
                 id="tspan2317"><tspan
                   style="fill:#0033cc"
                   id="tspan2315">email</tspan></tspan></text>
            <text
               xml:space="preserve"
               transform="matrix(0.26458333,0,0,0.26458333,0,-68.045822)"
               id="text1925"
               style="font-size:53.3333px;text-align:center;white-space:pre;shape-inside:url(#rect1939);display:inline;fill:#cc6699;fill-rule:evenodd;stroke-width:1.00157;stroke-linejoin:round;paint-order:stroke fill markers"><tspan
                 x="2.7091144"
                 y="523.68688"
                 id="tspan2319">write here email</tspan></text>
          </g>
          <path
             style="fill:#990000;fill-rule:evenodd;stroke-width:0.264999;stroke-linejoin:round;paint-order:stroke fill markers"
             d="m 140.05411,86.88694 c 15.8735,11.73189 18.54582,18.27898 28.81941,26.41779 l -16.81132,14.00943 -19.61321,-21.21429 -2.80189,88.0593 c -27.48518,-2.548 -51.197778,-10.91747 -82.455523,2.80189 l 1.200809,-95.66442 -26.81806,27.6186 L 6.7643531,111.30338 33.982682,81.68343 50.393733,75.27912 c 33.311428,17.74743 53.420097,8.96545 72.048517,-0.40027 l 20.01348,12.80862 z"
             id="path1929"
             sodipodi:nodetypes="cccccccccccccc" />
          <path
             style="fill:#000033;fill-rule:evenodd;stroke:#996600;stroke-width:0.264999;stroke-linejoin:round;paint-order:stroke fill markers"
             d="m 48.681729,206.61431 c 1.552293,29.81284 1.708825,59.62568 3.396398,89.43852 l 18.680198,1.6982 -2.830332,-85.47605 c 21.23197,24.20287 34.770507,11.61257 44.153197,0.56606 l 2.83033,82.64572 19.24627,0.56609 -3.96247,-101.892 c -20.34565,-3.40365 -40.463639,-5.78278 -59.593867,-3.717 -7.670394,0.82829 -15.18199,2.37117 -22.485792,4.84913 z"
             id="path1931"
             sodipodi:nodetypes="ccccccccscc" />
        </g>
      </g>
    </g>
    <text
       xml:space="preserve"
       transform="scale(0.26458333)"
       id="text1847"
       style="fill:#990000;fill-rule:evenodd;stroke-width:1.0015748;stroke-linejoin:round;paint-order:stroke fill markers;font-size:53.33333333px;text-align:center;stroke:#996600;white-space:pre;shape-inside:url(#rect1849)" />
  </g>
</svg>
