<?xml version="1.0" encoding="UTF-8" standalone="no"?>
<!-- Created with Inkscape (http://www.inkscape.org/) -->

<svg
   width="210mm"
   height="297mm"
   viewBox="0 0 210 297"
   version="1.1"
   id="svg5"
   inkscape:version="1.2.1 (9c6d41e410, 2022-07-14)"
   sodipodi:docname="drawing-2.svg"
   xmlns:inkscape="http://www.inkscape.org/namespaces/inkscape"
   xmlns:sodipodi="http://sodipodi.sourceforge.net/DTD/sodipodi-0.dtd"
   xmlns="http://www.w3.org/2000/svg"
   xmlns:svg="http://www.w3.org/2000/svg">
  <sodipodi:namedview
     id="namedview7"
     pagecolor="#ffffff"
     bordercolor="#000000"
     borderopacity="0.25"
     inkscape:showpageshadow="2"
     inkscape:pageopacity="0.0"
     inkscape:pagecheckerboard="0"
     inkscape:deskcolor="#d1d1d1"
     inkscape:document-units="mm"
     showgrid="false"
     inkscape:zoom="0.68328423"
     inkscape:cx="179.28118"
     inkscape:cy="500.52377"
     inkscape:window-width="1280"
     inkscape:window-height="961"
     inkscape:window-x="-8"
     inkscape:window-y="-8"
     inkscape:window-maximized="1"
     inkscape:current-layer="layer1" />
  <defs
     id="defs2" />
  <g
     inkscape:label="Layer 1"
     inkscape:groupmode="layer"
     id="layer1">
    <rect
       style="opacity:1;fill:#1a1a1a;fill-opacity:1;fill-rule:evenodd;stroke:#a90000;stroke-width:0.687307;stroke-dasharray:none;stroke-opacity:1;paint-order:markers fill stroke"
       id="rect5285"
       width="245.76128"
       height="157.4744"
       x="-58.02079"
       y="69.762794"
       ry="1.4460189" />
    <path
       id="path8559"
       style="font-size:93.1865px;font-family:'Edwardian Script ITC';-inkscape-font-specification:'Edwardian Script ITC, Normal ';text-align:center;text-anchor:middle;fill:#d4aa00;fill-rule:evenodd;stroke:#a90000;stroke-width:1.03091;paint-order:markers fill stroke"
       d="M -26.589075 86.621586 C -32.752547 86.621586 -38.38259 93.381355 -43.479 106.90097 C -48.559484 120.36279 -51.099723 135.26904 -51.099723 151.61969 C -51.099723 159.70834 -50.43878 166.17926 -49.116899 171.03245 C -47.779091 175.82787 -46.003328 178.22581 -43.789575 178.22581 C -40.397277 178.22581 -36.957131 172.50581 -33.469275 161.06614 C -29.981419 149.62647 -28.237553 138.30262 -28.237553 127.09405 C -28.237553 117.90765 -29.607025 113.31453 -32.346346 113.31453 C -35.213077 113.31453 -38.00797 117.58976 -40.731364 126.14062 C -43.454759 134.69149 -44.816386 143.47323 -44.816386 152.4863 C -44.816386 156.1262 -44.553888 159.21748 -44.02832 161.75964 C -43.502754 164.24401 -42.8575 165.48602 -42.093038 165.48602 C -41.790439 165.48602 -41.639319 165.25525 -41.639319 164.79304 C -41.639319 164.27306 -41.774749 164.01273 -42.045496 164.01273 C -42.555137 164.01273 -43.001168 163.26181 -43.383398 161.75964 C -43.765629 160.25746 -43.95649 158.46626 -43.95649 156.38632 C -43.95649 147.95101 -42.602707 138.93797 -39.895239 129.34714 C -37.171845 119.69853 -34.623761 114.87413 -32.250745 114.87413 C -29.877729 114.87413 -28.691272 119.06327 -28.691272 127.4408 C -28.691272 137.95606 -30.403242 148.7888 -33.827393 159.93959 C -37.235617 171.09038 -40.540333 176.6657 -43.741516 176.6657 C -45.700449 176.6657 -47.253454 174.75938 -48.400146 170.94615 C -49.546839 167.13293 -50.119938 161.99063 -50.119938 155.51971 C -50.119938 142.75119 -48.081677 129.14503 -44.004549 114.70101 C -39.035549 97.079293 -33.190593 88.268514 -26.469702 88.268514 C -21.659965 88.268514 -18.012752 92.110719 -15.528251 99.794942 C -17.057174 103.60817 -18.912419 109.9344 -21.09432 118.77415 C -23.27622 127.61389 -25.171723 136.42468 -26.780278 145.20664 C -29.997387 163.00168 -32.08375 174.21041 -33.039327 178.8325 C -33.915273 183.10793 -34.974144 187.29655 -36.216394 191.39865 C -39.051273 200.75839 -42.212714 205.43862 -45.70057 205.43862 C -47.675429 205.43862 -49.315761 203.84968 -50.621716 200.67199 C -51.911745 197.4943 -52.556999 193.50741 -52.556999 188.712 C -52.556999 185.64986 -52.429414 184.11899 -52.174593 184.11899 C -52.09496 184.11899 -52.063065 184.75478 -52.078992 186.02585 C -52.110844 189.14576 -51.712916 190.70567 -50.884749 190.70567 C -50.406961 190.70567 -50.008517 190.01233 -49.68999 188.6257 C -49.355539 187.23907 -49.188212 185.56351 -49.188212 183.59913 C -49.188212 179.67035 -49.673984 177.70595 -50.645487 177.70595 C -51.314391 177.70595 -51.895852 178.77475 -52.389567 180.91247 C -52.867357 183.05018 -53.106319 185.5923 -53.106319 188.53888 C -53.106319 193.85428 -52.397274 198.30323 -50.979834 201.88535 C -49.562395 205.40969 -47.786632 207.17185 -45.652511 207.17185 C -43.0406 207.17185 -40.070537 204.22523 -36.741943 198.33208 C -33.922992 193.24778 -31.733094 187.55682 -30.172319 181.25922 C -28.611543 174.96163 -26.891728 164.67754 -25.012427 150.40684 C -21.906802 126.83419 -18.60993 110.30996 -15.122074 100.83467 L -14.883329 101.96122 C -13.672932 107.16107 -13.067419 112.59222 -13.067419 118.25428 C -13.067419 125.41852 -13.672932 131.65815 -14.883329 136.97355 C -16.093727 142.23118 -17.646215 145.40907 -19.541443 146.50682 C -20.481093 145.17797 -21.420742 144.51366 -22.360392 144.51366 C -23.156707 144.51366 -23.555151 144.97572 -23.555151 145.90014 C -23.555151 147.34454 -22.766623 148.06641 -21.189921 148.06641 C -21.046585 148.06641 -20.465124 147.8932 -19.445841 147.54655 C -18.824717 149.45316 -18.514115 151.7645 -18.514115 154.47998 C -18.514115 156.61769 -18.657907 159.21737 -18.94458 162.2795 C -20.091272 174.23916 -20.664372 182.58787 -20.664372 187.32552 C -20.664372 193.85422 -20.146703 199.3139 -19.111495 203.70488 C -18.076287 208.15363 -16.794141 210.37837 -15.265218 210.37837 C -14.61224 210.37837 -13.839919 209.71405 -12.948047 208.38521 C -12.056175 207.11413 -11.610144 205.98725 -11.610144 205.00506 C -11.610144 204.54284 -11.673936 204.31156 -11.801347 204.31156 C -11.880978 204.31156 -12.024253 204.54284 -12.231295 205.00506 C -13.139093 207.48943 -14.102792 208.73145 -15.122074 208.73145 C -16.109504 208.73145 -16.945618 207.51847 -17.630448 205.09187 C -18.315278 202.72306 -18.657776 199.80548 -18.657776 196.33892 C -18.657776 192.9879 -18.379071 188.36575 -17.821651 182.47258 C -16.977559 173.51729 -16.555579 166.84412 -16.555579 162.45313 C -16.555579 155.86665 -17.383331 150.84 -19.039665 147.37343 C -16.602943 146.27569 -14.644165 143.35812 -13.163021 138.62048 C -11.66595 133.82506 -10.91768 128.04698 -10.91768 121.28717 C -10.91768 113.31407 -12.096292 105.91902 -14.453381 99.101444 C -11.698135 92.803849 -8.9743625 89.654993 -6.2828206 89.654993 C -4.3238877 89.654993 -2.747348 91.879209 -1.5528768 96.32797 C -0.35840558 100.71895 0.23874512 106.5546 0.23874512 113.8344 C 0.23874512 118.51426 0.023832879 122.87609 -0.40617676 126.92042 C -0.43802933 127.26707 -0.45371908 127.5274 -0.45371908 127.70073 C -0.45371908 128.27849 -0.37423679 128.56735 -0.21497396 128.56735 C -0.0079322787 128.56735 0.20697995 126.77615 0.42994792 123.19403 C 0.65291589 119.61191 0.76429443 116.31889 0.76429443 113.31453 C 0.76429443 105.74586 0.11171289 99.650395 -1.1942424 95.028308 C -2.4842713 90.406219 -4.1967579 88.094881 -6.3308797 88.094881 C -9.0542745 88.094881 -11.873219 91.388422 -14.787728 97.974898 C -17.972985 90.406228 -21.906747 86.621586 -26.589075 86.621586 z M 80.125342 86.621586 C 73.961871 86.621586 68.331827 93.381355 63.235417 106.90097 C 58.154932 120.36279 55.614693 135.26904 55.614693 151.61969 C 55.614693 159.70834 56.275637 166.17926 57.597518 171.03245 C 58.935325 175.82787 60.711088 178.22581 62.924841 178.22581 C 66.31714 178.22581 69.757285 172.50581 73.245142 161.06614 C 76.732999 149.62647 78.476864 138.30262 78.476864 127.09405 C 78.476864 117.90765 77.107391 113.31453 74.36807 113.31453 C 71.501339 113.31453 68.70593 117.58976 65.982536 126.14062 C 63.259141 134.63371 61.897514 143.35789 61.897514 152.31318 C 61.897514 155.95308 62.160529 159.04437 62.686096 161.58652 C 63.211664 164.07089 63.8564 165.31291 64.620862 165.31291 C 64.92346 165.31291 65.075098 165.0531 65.075098 164.53311 C 65.075098 164.24423 64.939668 164.01294 64.668921 163.83961 C 64.15928 163.83961 63.713249 163.0887 63.331018 161.58652 C 62.948786 160.08434 62.75741 158.29315 62.75741 156.2132 C 62.75741 147.77789 64.111191 138.79338 66.81866 129.26033 C 69.542055 119.6695 72.090139 114.87413 74.463155 114.87413 C 76.836171 114.87413 78.023145 119.06327 78.023145 127.4408 C 78.023145 137.95606 76.310657 148.7888 72.886507 159.93959 C 69.478283 171.09038 66.173568 176.6657 62.972384 176.6657 C 61.013451 176.6657 59.460964 174.75938 58.31427 170.94615 C 57.16758 167.13293 56.593962 161.99063 56.593962 155.51971 C 56.593962 142.75119 58.632739 129.14503 62.709867 114.70101 C 67.678867 97.079293 73.523821 88.268514 80.244714 88.268514 C 85.022597 88.268514 88.6698 92.110719 91.186165 99.794942 C 89.689097 103.55039 87.833334 109.87662 85.61958 118.77415 C 83.405827 127.67166 81.510841 136.42488 79.934139 145.03352 C 76.685177 163.05967 74.606659 174.29692 73.698861 178.74568 C 72.791062 183.13666 71.724345 187.35432 70.498022 191.39865 C 67.663143 200.75839 64.501704 205.43862 61.013847 205.43862 C 59.038988 205.43862 57.398138 203.84968 56.092183 200.67199 C 54.802154 197.4943 54.157418 193.50741 54.157418 188.712 C 54.157418 185.64986 54.285003 184.11899 54.539823 184.11899 C 54.619457 184.11899 54.651351 184.75478 54.635425 186.02585 C 54.60357 189.14576 55.001498 190.70567 55.829667 190.70567 C 56.307453 190.70567 56.705382 190.01233 57.02391 188.6257 C 57.35836 187.23907 57.525688 185.56351 57.525688 183.59913 C 57.525688 179.67035 57.039914 177.70595 56.068412 177.70595 C 55.399509 177.70595 54.818565 178.77475 54.324849 180.91247 C 53.847059 183.05018 53.608097 185.5923 53.608097 188.53888 C 53.608097 193.85428 54.316626 198.30323 55.734066 201.88535 C 57.151506 205.40969 58.927265 207.17185 61.061389 207.17185 C 63.673299 207.17185 66.643365 204.22523 69.971956 198.33208 C 72.79091 193.24778 74.965118 187.61438 76.494039 181.43234 C 78.070741 175.01919 79.80676 164.67754 81.70199 150.40684 C 84.775764 127.18084 88.05643 110.71417 91.544283 101.00779 C 92.770609 105.68765 93.383964 110.91655 93.383964 116.69417 C 93.383964 122.70288 92.898194 128.01839 91.926689 132.64048 C 90.971113 137.26257 89.664916 140.49804 88.008582 142.34687 C 86.830037 141.3069 85.882542 140.78676 85.165861 140.78676 C 84.162504 140.78676 83.661043 141.3069 83.661043 142.34687 C 83.661043 143.79127 84.26604 144.51366 85.476436 144.51366 C 85.858667 144.51366 86.240905 144.42654 86.623136 144.25321 L 88.008582 143.64705 C 90.556788 148.15358 91.831087 155.20221 91.831087 164.79304 C 91.831087 175.07719 90.811958 184.52324 88.773393 193.13188 C 86.750756 201.68275 84.521118 205.95849 82.084395 205.95849 C 81.017335 205.95849 80.125274 204.68743 79.40859 202.14528 C 78.691909 199.60314 78.33372 196.42525 78.33372 192.61202 C 78.33372 185.44778 79.19337 178.42819 80.913407 171.55284 C 82.633446 164.67748 84.393518 161.23977 86.193188 161.23977 C 87.148764 161.23977 87.921085 162.2505 88.51036 164.27266 C 89.09963 166.29482 89.394543 168.95258 89.394543 172.24582 C 89.394543 175.77016 88.980407 179.72801 88.152242 184.11899 C 88.088535 184.58121 88.056641 184.92762 88.056641 185.15872 C 88.056641 185.62094 88.143966 185.85222 88.319157 185.85222 C 88.558052 185.85222 88.868652 184.17667 89.250883 180.82566 C 89.633114 177.47465 89.824491 174.67272 89.824491 172.41945 C 89.824491 168.664 89.489842 165.60175 88.820935 163.23293 C 88.152032 160.80633 87.291865 159.59284 86.240731 159.59284 C 84.345505 159.59284 82.458364 163.2328 80.579061 170.51259 C 78.715687 177.73461 77.783883 185.04356 77.783883 192.4389 C 77.783883 197.23431 78.222067 201.01844 79.098014 203.7917 C 79.989887 206.62273 81.18419 208.03846 82.681258 208.03846 C 85.80281 208.03846 88.526581 204.3119 90.851819 196.85878 C 93.192983 189.40567 94.363232 180.71001 94.363232 170.77252 C 94.363232 157.36846 92.380405 148.15319 88.414758 143.12666 C 93.240422 140.70007 95.653593 133.04469 95.653593 120.16062 C 95.653593 112.12974 94.538773 105.11016 92.309094 99.101444 C 95.096195 92.803849 97.803245 89.654993 100.43108 89.654993 C 102.39002 89.654993 103.96707 91.879209 105.16154 96.32797 C 106.35601 100.71895 106.95316 106.5546 106.95316 113.8344 C 106.95316 118.51426 106.73825 122.87609 106.30824 126.92042 C 106.27637 127.26707 106.26018 127.5274 106.26018 127.70073 C 106.26018 128.27849 106.33967 128.56735 106.49893 128.56735 C 106.70597 128.56735 106.92139 126.77615 107.14436 123.19403 C 107.36733 119.61191 107.47871 116.31889 107.47871 113.31453 C 107.47871 105.74586 106.82561 99.650395 105.51966 95.028308 C 104.22963 90.406219 102.51766 88.094881 100.38354 88.094881 C 97.660146 88.094881 94.841201 91.388422 91.926689 97.974898 C 88.693653 90.406228 84.759888 86.621586 80.125342 86.621586 z M 146.29908 114.87413 C 145.72573 115.45188 145.12022 115.74074 144.48317 115.74074 C 144.14871 115.74074 143.74294 115.56753 143.26516 115.22087 L 139.63385 137.58023 C 136.92638 154.3353 135.30959 164.27297 134.78402 167.39288 C 134.21806 171.06865 133.7599 174.08566 133.36137 176.7365 C 129.92851 195.00285 127.48825 204.13844 126.04089 204.13844 C 125.29235 204.13844 124.91796 202.83835 124.91796 200.23842 C 124.91796 197.86961 125.24425 194.69222 125.89722 190.70567 L 131.22455 157.6865 L 134.35407 157.6865 L 134.54528 156.38632 L 131.41575 156.38632 L 134.16339 139.57339 C 133.6856 140.0356 133.22336 140.26689 132.77743 140.26689 C 132.34741 140.26689 131.89354 140.0356 131.41575 139.57339 L 128.62057 156.38632 L 126.23209 156.38632 L 125.99283 157.6865 L 128.42989 157.6865 L 125.36651 176.33859 C 125.31751 176.5212 125.26508 176.73394 125.20476 177.01245 C 124.59956 180.42125 123.81888 183.33881 122.8633 185.76541 C 121.90773 188.192 121.07161 189.40549 120.35493 189.40549 C 119.95677 189.40549 119.59858 189.05908 119.28006 188.36576 C 121.20714 179.00603 122.17084 171.00373 122.17084 164.35948 C 122.17084 159.04408 121.48584 156.38632 120.11618 156.38632 C 118.65096 156.38632 116.78736 159.30389 114.52583 165.13927 C 113.09442 168.81532 111.98257 172.55482 111.18805 176.35668 C 111.09147 176.67299 110.9717 177.11341 110.82321 177.70595 C 109.35799 185.15907 108.0042 188.88563 106.76196 188.88563 C 105.7586 188.88563 105.25714 186.45916 105.25714 181.60597 C 105.25714 179.87268 105.36852 177.67699 105.59149 175.01929 L 105.87778 174.15268 C 106.57853 172.59273 107.10456 171.40827 107.45494 170.59941 C 109.66869 165.45733 110.77515 161.49948 110.77515 158.72623 C 110.77515 157.16627 110.52834 156.38632 110.03463 156.38632 C 109.31794 156.38632 108.50588 158.11995 107.59808 161.58652 C 106.70621 165.05308 105.95742 169.35735 105.35223 174.49943 C 104.60369 176.69492 103.81568 179.52588 102.98751 182.99245 C 104.29347 175.65488 104.94657 169.76167 104.94657 165.31291 C 104.94657 159.36197 104.30916 156.38632 103.03505 156.38632 C 102.15911 156.38632 100.49473 162.30858 98.042078 174.15268 L 97.61213 176.31947 C 97.56435 176.4928 97.532455 176.72357 97.516528 177.01245 C 97.516528 177.30131 97.548423 177.47452 97.61213 177.53232 C 97.723614 177.53232 97.851199 177.12834 97.994535 176.31947 C 100.3357 163.89761 101.95198 157.6865 102.84385 157.6865 C 103.21015 157.6865 103.39369 158.49549 103.39369 160.11322 C 103.39369 162.88647 102.4143 170.05075 100.45537 181.60597 L 96.53726 204.65831 C 97.445055 204.42721 97.930829 204.31156 97.994535 204.31156 C 98.137872 204.31156 98.631487 204.42721 99.475582 204.65831 C 101.02043 195.06748 102.10335 188.71219 102.72448 185.59229 C 103.36153 182.47238 104.18196 179.32353 105.18531 176.14584 C 104.9942 178.63021 104.89851 180.68122 104.89851 182.29895 C 104.89851 187.38325 105.50402 189.92536 106.71442 189.92536 C 107.78148 189.92536 108.91983 187.49889 110.13023 182.6457 C 110.15957 182.5304 110.17879 182.4499 110.20723 182.33771 C 109.87006 185.15154 109.70028 187.99834 109.70028 190.87879 C 109.70028 194.86534 110.03494 198.30304 110.70384 201.19185 C 111.38867 204.02288 112.20857 205.43862 113.16415 205.43862 C 115.0116 205.43862 116.98658 200.03652 119.08885 189.23238 C 119.47109 189.92569 119.90927 190.27211 120.40299 190.27211 C 121.58153 190.27211 122.87152 187.72999 124.27303 182.6457 C 124.32527 182.45621 124.37047 182.28491 124.4198 182.1031 L 124.41618 182.12583 C 123.57208 187.32568 123.15011 191.65899 123.15011 195.12556 C 123.15011 198.07214 123.39691 200.52765 123.89063 202.49203 C 124.40027 204.45643 125.02931 205.43862 125.77785 205.43862 C 127.23198 205.43862 129.37225 198.45312 132.19451 184.52414 L 129.07481 205.00506 C 129.66408 204.6584 130.13365 204.48519 130.48403 204.48519 C 130.81848 204.48519 131.22477 204.6584 131.70256 205.00506 C 134.48965 186.80558 136.67955 174.44145 138.27218 167.91275 C 139.92851 161.09517 141.23419 157.6865 142.18977 157.6865 C 142.84274 157.6865 143.16956 158.81287 143.16956 161.06614 C 143.16956 162.97275 142.22206 168.9816 140.32684 179.09243 C 139.11644 185.62113 138.51093 190.9076 138.51093 194.95192 C 138.51093 197.95627 138.74988 200.46987 139.22768 202.49203 C 139.72139 204.45643 140.35044 205.43862 141.1149 205.43862 C 142.52793 205.43862 144.65421 198.40446 147.48919 184.37996 C 147.34865 186.24256 147.27835 188.14905 147.27835 190.09899 C 147.27835 194.48997 147.65275 198.15846 148.40128 201.10504 C 149.16574 203.99385 150.10539 205.43862 151.22023 205.43862 C 153.57732 205.43862 156.4041 198.04307 159.70085 183.25238 L 160.72817 178.57256 C 160.85376 177.9904 160.94699 177.53923 161.01756 177.17885 C 161.07712 176.97773 161.13979 176.69415 161.20618 176.31947 C 163.54735 163.89761 165.16362 157.6865 166.0555 157.6865 C 166.4218 157.6865 166.60482 158.49549 166.60482 160.11322 C 166.60482 162.88647 165.62543 170.05075 163.6665 181.60597 L 159.74891 204.65831 C 160.65667 204.42721 161.14245 204.31156 161.20618 204.31156 C 161.34952 204.31156 161.84313 204.42721 162.68723 204.65831 C 164.23208 195.06748 165.31501 188.71219 165.93612 185.59229 C 166.57318 182.47238 167.3936 179.32353 168.39696 176.14584 C 168.20584 178.63021 168.11015 180.68122 168.11015 182.29895 C 168.11015 187.38325 168.71515 189.92536 169.92555 189.92536 C 170.31916 189.92536 170.72269 189.59405 171.13581 188.93369 C 171.0462 190.32098 171.00042 191.72005 171.00042 193.13188 C 171.00042 196.88733 171.31938 199.89201 171.95643 202.14528 C 172.60941 204.34078 173.47741 205.43862 174.5604 205.43862 C 176.47156 205.43862 178.11974 203.53179 179.50532 199.71856 C 180.90683 195.90534 181.60752 191.39882 181.60752 186.19897 C 181.60752 183.7146 181.3926 180.65235 180.9626 177.01245 C 180.11851 169.73267 179.69653 164.41715 179.69653 161.06614 C 179.69653 159.73729 179.74411 158.17738 179.83967 156.38632 C 181.83045 149.51097 182.82605 144.91784 182.82605 142.6068 C 182.82605 141.6246 182.69847 141.1335 182.44364 141.1335 C 181.90215 141.1335 181.35259 142.57776 180.79517 145.46657 C 180.23775 148.35538 179.82361 151.82213 179.55286 155.86646 C 178.59729 160.25744 177.83281 163.69515 177.25946 166.17952 L 175.34847 174.67254 C 175.22106 174.44144 175.07779 174.32579 174.91852 174.32579 C 174.01073 174.32579 173.12702 176.3768 172.267 180.47891 C 171.78058 182.84285 171.43494 185.24553 171.22882 187.68622 C 170.79855 188.48393 170.38001 188.88563 169.9736 188.88563 C 168.97025 188.88563 168.46827 186.45916 168.46827 181.60597 C 168.46827 179.87268 168.57964 177.67699 168.80262 175.01929 L 169.08942 174.15268 C 169.79018 172.59273 170.3157 171.40827 170.66607 170.59941 C 172.87983 165.45733 173.9868 161.49948 173.9868 158.72623 C 173.9868 157.16627 173.73999 156.38632 173.24627 156.38632 C 172.52959 156.38632 171.71753 158.11995 170.80973 161.58652 C 169.91786 165.05308 169.16907 169.35735 168.56387 174.49943 C 167.81534 176.69492 167.02681 179.52588 166.19864 182.99245 C 167.50459 175.65488 168.15769 169.76167 168.15769 165.31291 C 168.15769 159.36197 167.5208 156.38632 166.2467 156.38632 C 165.37075 156.38632 163.70637 162.30858 161.25372 174.15268 L 160.86977 176.08899 C 160.78429 176.31805 160.68957 176.68042 160.58503 177.18608 C 156.93791 195.0389 153.85595 203.96533 151.3396 203.96533 C 149.85845 203.96533 149.11803 201.48078 149.11803 196.51204 C 149.11803 192.52549 149.65923 187.55692 150.74222 181.60597 C 154.246 179.06382 156.7465 176.34798 158.24357 173.45918 C 159.74064 170.5126 160.48943 166.95924 160.48943 162.79937 C 160.48943 161.00831 160.28236 159.50648 159.86828 158.29318 C 159.47013 157.0221 158.98435 156.38632 158.411 156.38632 C 157.08912 156.38632 155.37715 158.46637 153.27488 162.62625 C 150.59693 167.92878 148.81706 173.78963 147.93309 180.20709 L 147.51709 182.29895 C 144.65036 196.85854 142.59589 204.13844 141.35365 204.13844 C 140.66881 204.13844 140.32684 202.89644 140.32684 200.41206 C 140.32684 198.27435 141.10701 193.0164 142.66778 184.63886 C 144.0693 177.12796 144.76997 171.37943 144.76997 167.39288 C 144.76997 164.33075 144.52317 161.73056 144.02945 159.59284 C 143.55167 157.45512 142.9702 156.38632 142.28537 156.38632 C 140.54941 156.38632 138.18433 164.44619 135.1902 180.56572 C 137.56321 166.23724 138.79777 158.78412 138.89333 158.20636 C 142.17415 138.96692 144.64275 124.52274 146.29908 114.87413 z M 0.11937256 156.38632 C -1.0432461 156.38632 -2.5721999 158.29316 -4.4674276 162.10638 C -8.7834503 170.65725 -10.941451 180.47927 -10.941451 191.57229 C -10.941451 195.55883 -10.654901 198.88089 -10.081555 201.5386 C -9.5082089 204.13853 -8.7991631 205.43862 -7.95507 205.43862 C -7.1587558 205.43862 -6.3388481 204.02288 -5.494755 201.19185 C -4.6506622 198.36082 -3.4323093 192.90115 -1.839681 184.81249 C -2.349322 188.45238 -2.6039754 191.83201 -2.6039754 194.95192 C -2.6039754 197.95627 -2.3728567 200.46987 -1.9109945 202.49203 C -1.4491323 204.45643 -0.85198157 205.43862 -0.11937256 205.43862 C 0.96361469 205.43862 2.4444657 201.3361 4.3237671 193.13188 C 6.2368926 184.90812 7.3617505 179.66391 7.7008219 177.38504 C 7.7700587 177.19948 7.8544247 176.84686 7.95507 176.31947 C 10.344012 163.89761 11.944604 157.6865 12.756844 157.6865 C 13.155002 157.6865 13.354224 158.55306 13.354224 160.28634 C 13.354224 163.34848 12.295352 171.00385 10.177157 183.25238 L 6.4502523 204.65831 C 6.9439671 204.42721 7.4694806 204.31156 8.0269002 204.31156 C 8.1861633 204.31156 8.6557287 204.42721 9.4361165 204.65831 C 14.277706 173.34367 17.861127 157.6865 20.186365 157.6865 C 20.871195 157.6865 21.213692 158.87095 21.213692 161.23977 C 21.213692 163.14638 20.568955 167.56629 19.278927 174.49943 C 18.036676 181.0859 17.264354 185.50581 16.961755 187.75908 C 16.675082 189.95457 16.531291 192.35199 16.531291 194.95192 C 16.531291 197.8985 16.770254 200.38306 17.248043 202.40522 C 17.741758 204.42739 18.34727 205.43862 19.063953 205.43862 C 20.14694 205.43862 21.635636 201.3361 23.530863 193.13188 C 24.213358 190.17788 24.782784 187.65522 25.263574 185.46827 C 25.111943 187.45818 25.036198 189.49306 25.036198 191.57229 C 25.036198 195.55883 25.322747 198.88089 25.896094 201.5386 C 26.46944 204.13853 27.178486 205.43862 28.022579 205.43862 C 28.818893 205.43862 29.638801 204.02288 30.482894 201.19185 C 31.326986 198.36082 32.54534 192.90115 34.137968 184.81249 C 33.628327 188.45238 33.373674 191.83201 33.373674 194.95192 C 33.373674 197.95627 33.604275 200.46987 34.066138 202.49203 C 34.528 204.45643 35.125668 205.43862 35.858276 205.43862 C 36.941264 205.43862 38.422115 201.3361 40.301416 193.13188 C 42.626654 183.13662 43.789575 177.53277 43.789575 176.31947 C 43.789575 175.97282 43.741473 175.79909 43.645915 175.79909 C 43.566283 175.79909 43.478956 176.08794 43.383398 176.6657 C 41.934107 184.4077 40.508687 190.9367 39.107174 196.2521 C 37.705661 201.50973 36.686014 204.13844 36.048962 204.13844 C 35.427838 204.13844 35.117236 202.78078 35.117236 200.06531 C 35.117236 197.23428 35.850334 191.37011 37.315552 182.47258 L 41.543717 157.07982 C 40.858887 157.48425 40.301478 157.6865 39.871468 157.6865 C 39.505163 157.6865 39.083184 157.48425 38.605396 157.07982 L 37.386865 165.48602 C 37.514276 163.86829 37.578068 162.56871 37.578068 161.58652 C 37.578068 158.11995 37.084451 156.38632 36.097021 156.38632 C 34.934403 156.38632 33.405449 158.29316 31.510221 162.10638 C 28.544914 167.98122 26.598272 174.45622 25.670268 181.53104 C 22.696566 196.58471 20.563981 204.13844 19.278927 204.13844 C 18.625949 204.13844 18.299141 202.95399 18.299141 200.58517 C 18.299141 198.3319 19.047929 193.13204 20.544999 184.98561 C 22.010218 177.0125 22.742798 171.09025 22.742798 167.21925 C 22.742798 164.15712 22.503835 161.58648 22.026046 159.50654 C 21.548257 157.4266 20.958951 156.38632 20.258195 156.38632 C 19.398176 156.38632 18.458528 158.11995 17.439246 161.58652 C 16.43589 165.05308 14.99478 171.49496 13.115479 180.91247 C 14.309949 174.32599 14.9071 169.18369 14.9071 165.48602 C 14.9071 163.00165 14.715722 160.86404 14.333492 159.07298 C 13.951261 157.28192 13.48954 156.38632 12.948047 156.38632 C 12.103954 156.38632 10.463622 162.30858 8.0269002 174.15268 L 7.6817017 175.80219 C 7.677178 175.80133 7.6730266 175.79909 7.6682658 175.79909 C 7.5886344 175.79909 7.5013071 176.08794 7.4057495 176.6657 C 5.9564578 184.4077 4.5310376 190.9367 3.1295247 196.2521 C 1.7280118 201.50973 0.70888154 204.13844 0.071830241 204.13844 C -0.54929478 204.13844 -0.85989583 202.78078 -0.85989583 200.06531 C -0.85989583 197.23428 -0.12731522 191.37011 1.3379028 182.47258 L 5.5660685 157.07982 C 4.8812383 157.48425 4.3238288 157.6865 3.8938192 157.6865 C 3.5275147 157.6865 3.1055351 157.48425 2.6277466 157.07982 L 1.4092163 165.48602 C 1.5366266 163.86829 1.6004191 162.56871 1.6004191 161.58652 C 1.6004191 158.11995 1.1068021 156.38632 0.11937256 156.38632 z M 120.06812 157.51287 C 121.23074 157.51287 121.8122 159.85325 121.8122 164.53311 C 121.8122 167.01748 121.68513 169.27074 121.43031 171.2929 C 121.33475 170.13738 121.15907 169.55916 120.90425 169.55916 C 120.31498 169.55916 119.70998 171.0615 119.08885 174.06586 C 118.46773 177.07022 118.15713 179.98778 118.15713 182.81882 C 118.15713 184.7832 118.38824 186.69004 118.85011 188.53888 C 116.81155 198.82302 114.93225 203.96533 113.21221 203.96533 C 112.16107 203.96533 111.63556 201.97188 111.63556 197.98533 C 111.63556 191.10998 112.67874 182.64561 114.76509 172.59257 C 116.85143 162.53952 118.61883 157.51287 120.06812 157.51287 z M 158.3154 157.51287 C 158.87282 157.51287 159.15153 158.43751 159.15153 160.28634 C 159.15153 163.75291 158.35516 167.45043 156.76252 171.3792 C 155.1699 175.2502 153.22681 178.25489 150.93342 180.39261 C 152.25531 173.6328 153.60124 168.14408 154.9709 163.92643 C 156.35649 159.651 157.47131 157.51287 158.3154 157.51287 z M 0.16743164 157.6865 C 0.8841144 157.6865 1.2423014 159.10173 1.2423014 161.93275 C 1.2423014 165.97708 0.13532721 173.4302 -2.0784261 184.29211 C -4.7858941 197.52284 -6.6892413 204.13844 -7.7881551 204.13844 C -8.7118793 204.13844 -9.1736003 202.26065 -9.1736003 198.5052 C -9.1736003 192.09205 -7.9871438 183.68577 -5.6141276 173.28606 C -3.2251853 162.88637 -1.2977864 157.6865 0.16743164 157.6865 z M 36.144564 157.6865 C 36.861246 157.6865 37.21995 159.10173 37.21995 161.93275 C 37.21995 165.97708 36.112976 173.4302 33.899223 184.29211 C 31.191755 197.52284 29.288407 204.13844 28.189494 204.13844 C 27.265769 204.13844 26.804049 202.26065 26.804049 198.5052 C 26.804049 192.09205 27.990505 183.68577 30.363521 173.28606 C 32.752464 162.88637 34.679346 157.6865 36.144564 157.6865 z M 179.50532 157.85962 C 179.44159 159.5929 179.40972 161.75955 179.40972 164.35948 C 179.40972 167.53717 179.4254 169.99267 179.45726 171.72595 C 179.48913 173.40146 179.50532 175.10605 179.50532 176.83934 C 179.50532 183.31026 178.90033 189.37668 177.68993 195.03874 C 176.49546 200.64303 175.229 203.44495 173.89119 203.44495 C 173.20636 203.44495 172.63327 202.665 172.1714 201.10504 C 171.70954 199.54509 171.47842 197.60972 171.47842 195.29867 C 171.47842 193.16096 171.70118 191.139 172.14712 189.23238 C 172.60897 187.26799 173.1507 186.02546 173.77182 185.50547 C 175.31667 184.29217 176.08899 181.98135 176.08899 178.57256 C 176.08899 177.24371 175.93787 176.11683 175.63527 175.19241 C 177.32346 167.73929 178.61345 161.96172 179.50532 157.85962 z " />
    <path
       id="path10049"
       style="font-size:93.1865px;font-family:'Edwardian Script ITC';-inkscape-font-specification:'Edwardian Script ITC, Normal ';text-align:center;text-anchor:middle;fill:#000080;fill-rule:evenodd;stroke:#a90000;stroke-width:1.03091;paint-order:markers fill stroke"
       d="M -26.589075 86.621586 C -29.175071 86.621586 -31.665896 87.827461 -34.064071 90.207414 L -32.84554 91.161877 C -30.815683 89.237144 -28.690909 88.268514 -26.469702 88.268514 C -21.65997 88.268514 -18.01275 92.110727 -15.528251 99.794942 C -15.959884 100.87146 -16.420222 102.17083 -16.903878 103.64794 L -16.24397 104.1647 C -15.872047 102.97807 -15.498446 101.85714 -15.122074 100.83467 L -14.883329 101.96122 C -14.585384 103.24119 -14.325065 104.53567 -14.100431 105.84367 L -12.248348 107.29423 C -12.80792 104.47722 -13.539477 101.74479 -14.453381 99.101444 C -11.698138 92.803856 -8.9743598 89.654993 -6.2828206 89.654993 C -4.3238897 89.654993 -2.7473468 91.879214 -1.5528768 96.32797 C -0.35840676 100.71895 0.23874512 106.5546 0.23874512 113.8344 C 0.23874512 114.92306 0.22428374 115.9908 0.20102132 117.04505 L 0.69659831 117.43263 C 0.73922944 116.0081 0.76429443 114.62857 0.76429443 113.31453 C 0.76429443 105.74587 0.11171163 99.65039 -1.1942424 95.028308 C -2.48427 90.406224 -4.1967601 88.094881 -6.3308797 88.094881 C -9.0542718 88.094881 -11.873222 91.388429 -14.787728 97.974898 C -17.972982 90.406236 -21.906751 86.621586 -26.589075 86.621586 z M 80.125342 86.621586 C 73.961877 86.621586 68.331822 93.381367 63.235417 106.90097 C 58.154937 120.36277 55.614693 135.26905 55.614693 151.61969 C 55.614693 154.92517 55.731385 157.94545 55.95214 160.7106 L 56.336096 161.01136 L 56.740723 160.74419 C 56.646457 159.10756 56.593962 157.37472 56.593962 155.51971 C 56.593962 142.7512 58.632743 129.14501 62.709867 114.70101 C 67.678862 97.07931 73.523828 88.268514 80.244714 88.268514 C 85.022593 88.268514 88.669803 92.110727 91.186165 99.794942 C 89.689099 103.55039 87.833332 109.87662 85.61958 118.77415 C 83.405829 127.67165 81.510839 136.42489 79.934139 145.03352 C 79.89933 145.22665 79.882896 145.31221 79.848356 145.50378 L 82.635266 143.66565 C 85.437802 123.99262 88.406618 109.73963 91.544283 101.00779 C 92.770608 105.68764 93.383964 110.91655 93.383964 116.69417 C 93.383964 122.70287 92.898193 128.0184 91.926689 132.64048 C 91.430953 135.03834 90.839101 137.05478 90.154704 138.70626 L 93.52194 136.48521 C 94.938811 132.57431 95.653593 127.14175 95.653593 120.16062 C 95.653593 112.12975 94.538771 105.11015 92.309094 99.101444 C 95.096192 92.803856 97.803247 89.654993 100.43108 89.654993 C 102.39002 89.654993 103.96707 91.879214 105.16154 96.32797 C 106.35601 100.71895 106.95316 106.5546 106.95316 113.8344 C 106.95316 118.51425 106.73825 122.87609 106.30824 126.92042 C 106.27637 127.26707 106.26018 127.5274 106.26018 127.70073 C 106.26018 127.84301 106.26552 127.96711 106.27517 128.07435 L 106.72837 127.77515 C 106.86402 126.94661 107.00238 125.4751 107.14436 123.19403 C 107.36733 119.61191 107.47871 116.31889 107.47871 113.31453 C 107.47871 105.74587 106.82561 99.65039 105.51966 95.028308 C 104.22963 90.406224 102.51765 88.094881 100.38354 88.094881 C 97.660146 88.094881 94.841198 91.388429 91.926689 97.974898 C 88.693656 90.406236 84.759883 86.621586 80.125342 86.621586 z M 74.36807 113.31453 C 71.501342 113.31453 68.705927 117.58977 65.982536 126.14062 C 63.259144 134.6337 61.897514 143.3579 61.897514 152.31318 C 61.897514 154.07952 61.962312 155.71093 62.086133 157.21883 L 62.770329 156.76769 C 62.767086 156.58112 62.75741 156.40467 62.75741 156.2132 C 62.75741 147.7779 64.111194 138.79337 66.81866 129.26033 C 69.542053 119.66951 72.090141 114.87413 74.463155 114.87413 C 76.836169 114.87413 78.023145 119.06328 78.023145 127.4408 C 78.023145 134.19904 77.311726 141.08914 75.897176 148.10982 L 76.534863 147.68918 C 77.82698 140.78144 78.476864 133.91625 78.476864 127.09405 C 78.476864 117.90766 77.107389 113.31453 74.36807 113.31453 z M 85.165861 140.78676 C 84.162505 140.78676 83.661043 141.3069 83.661043 142.34687 C 83.661043 142.56941 83.680378 142.7689 83.709102 142.95717 L 86.410746 141.17536 C 85.938299 140.9165 85.523393 140.78676 85.165861 140.78676 z " />
  </g>
</svg>
